<svg width="111" height="118" viewBox="0 0 111 118" fill="none" xmlns="http://www.w3.org/2000/svg">
<g clip-path="url(#clip0)">
<path d="M0 53.2649V66.8006C0 69.2498 1.98773 71.2358 4.43898 71.2358H53.0118C55.463 71.2358 57.4508 69.2498 57.4508 66.8006V55.3646L63.4964 49.0172L4.4532 48.8325C1.99626 48.824 0 50.8101 0 53.2649Z" fill="#D0EAF4"/>
<path d="M50.2879 57.0326L6.21094 56.828L6.21662 55.4756L50.2936 55.6773L50.2879 57.0326Z" fill="white"/>
<path d="M50.2879 61.4847L6.21094 61.2802L6.21662 59.9277L50.2936 60.1323L50.2879 61.4847Z" fill="white"/>
<path d="M32.8554 64.3849L32.8486 65.7373L50.2889 65.8215L50.2957 64.4691L32.8554 64.3849Z" fill="#E0E0E0"/>
<path d="M45.0068 100.032V113.568C45.0068 116.017 46.9946 118.003 49.4458 118.003H98.0186C100.47 118.003 102.458 116.017 102.458 113.568V102.132L108.503 95.7843L49.46 95.5996C47.0031 95.5911 45.0068 97.5771 45.0068 100.032Z" fill="#D0EAF4"/>
<path d="M95.5048 103.447L51.4307 103.243L51.4335 101.89L95.5105 102.092L95.5048 103.447Z" fill="white"/>
<path d="M95.5048 107.899L51.4307 107.698L51.4335 106.342L95.5105 106.547L95.5048 107.899Z" fill="white"/>
<path d="M78.0737 110.801L78.0669 112.153L95.5071 112.238L95.5139 110.885L78.0737 110.801Z" fill="white"/>
<path d="M25.9629 2.28174H54.6101C56.0291 2.28174 57.1779 3.4296 57.1779 4.84739V18.8491C57.1779 20.2669 56.0291 21.4147 54.6101 21.4147H30.2995C28.8805 21.4147 27.7317 20.2669 27.7317 18.8491V4.049L25.9629 2.28174Z" fill="#D0EAF4"/>
<path d="M42.57 15.8909V24.8664C42.57 26.4916 41.2534 27.8071 39.6268 27.8071H7.41079C5.78421 27.8071 4.46759 26.4916 4.46759 24.8664V17.2803L0.458008 13.0724L39.6183 12.9502C41.2477 12.9445 42.57 14.2629 42.57 15.8909Z" fill="#D0EAF4"/>
<path d="M9.21671 18.3883L38.4497 18.2548L38.4468 17.3569L9.21387 17.4905L9.21671 18.3883Z" fill="white"/>
<path d="M9.21671 21.3433L38.4497 21.2069L38.4468 20.3091L9.21387 20.4455L9.21671 21.3433Z" fill="white"/>
<path d="M20.7824 23.2679L9.21436 23.3252L9.21875 24.223L20.7868 24.1658L20.7824 23.2679Z" fill="white"/>
<path d="M103.598 57.5182V66.4938C103.598 68.119 102.281 69.4345 100.655 69.4345H68.4386C66.812 69.4345 65.4954 68.119 65.4954 66.4938V58.9076L61.4858 54.6969L100.646 54.5747C102.276 54.5719 103.598 55.8902 103.598 57.5182Z" fill="#D0EAF4"/>
<path d="M70.2445 60.0158L99.4775 59.8822L99.4747 58.9844L70.2417 59.1179L70.2445 60.0158Z" fill="white"/>
<path d="M70.2445 62.9708L99.4775 62.8344L99.4747 61.9365L70.2417 62.0729L70.2445 62.9708Z" fill="white"/>
<path d="M81.8112 64.8959L70.2432 64.9531L70.2476 65.8509L81.8156 65.7937L81.8112 64.8959Z" fill="#D0EAF4"/>
<path d="M76.0032 102.083C71.1888 97.3979 71.1092 90.1528 72.3633 83.8565C72.5709 82.8053 72.6391 81.6716 73.2932 80.8278C73.9472 79.9839 75.2268 79.5407 76.0999 80.1402C76.825 80.6374 77.0184 81.6063 77.334 82.4331C77.7549 83.5326 78.4885 84.5072 79.427 85.2061C80.044 85.6664 80.8431 86.0159 81.5682 85.7573C82.5635 85.4022 82.8763 84.1606 83.0441 83.1093C83.3541 81.1488 83.6612 79.1855 83.9712 77.225C84.1361 76.1738 84.3095 75.0998 84.8015 74.1537C85.2935 73.2104 86.1665 72.4006 87.2129 72.2841C88.2594 72.1676 89.4026 72.9461 89.4452 74.0116C89.4623 74.4548 89.303 74.8839 89.2604 75.3243C89.2177 75.7646 89.3429 76.2818 89.7381 76.4721C90.1391 76.6653 90.6083 76.4352 90.9723 76.1795C92.232 75.2958 93.1932 74.0485 94.106 72.8012C95.0188 71.5539 95.9146 70.2725 97.089 69.2752C98.2635 68.278 99.7763 67.5847 101.298 67.7466C102.819 67.9086 104.272 69.0991 104.411 70.639C104.551 72.1847 103.439 73.5456 102.301 74.5912C100.612 76.1425 98.7014 77.4467 96.6482 78.4496C96.2786 78.6315 95.8776 78.8247 95.6871 79.194C95.343 79.8589 95.8947 80.663 96.5487 81.0068C97.2909 81.396 98.1554 81.4528 98.9602 81.6858C99.7649 81.916 100.595 82.4245 100.777 83.2485C101.033 84.3935 99.9469 85.3738 98.9431 85.9647C96.9298 87.1524 94.7145 87.9877 92.4254 88.4253C91.6064 88.5815 90.7505 88.6952 90.0367 89.1384C89.3229 89.5788 88.7912 90.4624 89.0471 91.2637C89.303 92.0677 90.2329 92.4627 91.0661 92.4456C91.9022 92.4286 92.6984 92.1075 93.5202 91.9427C95.0558 91.633 96.907 92.0393 97.6293 93.4401C98.1042 94.3606 97.9706 95.5113 97.5013 96.4404C97.0321 97.3695 96.27 98.1083 95.4795 98.7788C92.7155 101.117 89.3912 102.819 85.848 103.433C82.2962 104.041 79.1369 103.845 76.0032 102.083Z" fill="#FF6961"/>
<path d="M75.1499 106.763C75.7897 104.291 76.8277 101.418 78.2893 98.381C79.7453 95.338 81.6193 92.1359 83.6923 88.8514C84.2127 88.0332 84.7302 87.2234 85.2364 86.425C85.7454 85.6295 86.2488 84.8424 86.7919 84.1009C87.8697 82.6149 89.0157 81.2681 90.1474 80.0237C91.2764 78.7792 92.3939 77.637 93.4461 76.5801C94.5011 75.5231 95.5049 74.5571 96.4547 73.7133C98.3514 72.0227 100.041 70.8408 101.235 70.0765C101.832 69.6929 102.301 69.4088 102.625 69.2241C102.779 69.136 102.901 69.065 102.992 69.0138C103.075 68.9684 103.12 68.9456 103.12 68.9485C103.123 68.9513 103.083 68.9797 103.001 69.0309C102.913 69.0877 102.793 69.1616 102.643 69.2582C102.327 69.4571 101.861 69.7497 101.272 70.1418C100.095 70.9231 98.4225 72.1193 96.5429 73.8184C95.6016 74.6651 94.6063 75.6339 93.557 76.6966C92.5105 77.7592 91.3987 78.9014 90.2754 80.1487C89.1522 81.3932 88.0118 82.7371 86.9426 84.2174C86.4052 84.9533 85.9047 85.7374 85.3957 86.533C84.8895 87.3314 84.3748 88.1383 83.8515 88.9566C81.7785 92.2382 79.9045 95.4289 78.4429 98.4606C76.9755 101.486 75.9319 104.342 75.275 106.8" fill="#263238"/>
<path d="M86.8492 84.1038C86.8349 84.1038 86.8264 83.939 86.8207 83.6378C86.8122 83.3395 86.815 82.9048 86.8292 82.3678C86.852 81.2966 86.9345 79.8192 87.0311 78.1883C87.1278 76.5574 87.1875 75.0828 87.1961 74.0145C87.2018 73.4803 87.1989 73.0485 87.1961 72.7501C87.1932 72.4518 87.1989 72.2842 87.2131 72.2842C87.2274 72.2842 87.2473 72.449 87.2728 72.7473C87.3013 73.0456 87.3212 73.4803 87.3354 74.0145C87.3638 75.0857 87.3269 76.5688 87.2302 78.1997C87.1307 79.8078 87.0397 81.2625 86.9714 82.3735C86.943 82.8764 86.9202 83.2997 86.9003 83.6378C86.8804 83.939 86.8634 84.1038 86.8492 84.1038Z" fill="#263238"/>
<path d="M100.792 83.7912C100.789 83.8054 100.593 83.7941 100.243 83.7685C99.8902 83.7429 99.3812 83.7032 98.7499 83.6719C97.4902 83.6037 95.7442 83.5696 93.8162 83.6151C91.8881 83.6634 90.145 83.7827 88.8881 83.9049C88.2596 83.9617 87.7506 84.0214 87.398 84.0611C87.0454 84.1009 86.852 84.118 86.8492 84.1038C86.8463 84.0896 87.0397 84.0498 87.3866 83.9844C87.7364 83.9219 88.2425 83.8424 88.871 83.7657C90.1279 83.6066 91.8768 83.4645 93.8105 83.4162C95.7442 83.3707 97.4959 83.4276 98.7556 83.5327C99.3869 83.581 99.8959 83.6406 100.246 83.6918C100.601 83.7429 100.792 83.777 100.792 83.7912Z" fill="#263238"/>
<path d="M78.4973 98.1595C78.4916 98.1624 78.4689 98.0999 78.4319 97.9805C78.3921 97.8385 78.3409 97.6651 78.2812 97.4549C78.1532 96.9974 77.9826 96.3298 77.7836 95.5001C77.3854 93.8437 76.9049 91.5422 76.4101 88.9936C75.9153 86.4422 75.4574 84.138 75.0934 82.4787C74.9143 81.6717 74.7664 81.0069 74.6555 80.5125C74.61 80.2994 74.5702 80.1204 74.5389 79.9755C74.5133 79.8534 74.5048 79.788 74.5105 79.7852C74.5162 79.7852 74.5389 79.8448 74.5759 79.9642C74.6157 80.1062 74.6669 80.2795 74.7266 80.4898C74.8546 80.9472 75.0252 81.6149 75.2242 82.4446C75.6224 84.101 76.1029 86.4024 76.5977 88.9539C77.0925 91.5025 77.5504 93.8067 77.9115 95.4689C78.0907 96.2758 78.2385 96.9406 78.3494 97.435C78.3949 97.6481 78.4348 97.8271 78.466 97.972C78.4916 98.0913 78.503 98.1567 78.4973 98.1595Z" fill="#263238"/>
<path d="M97.4217 95.3126C97.4217 95.3183 97.3563 95.3353 97.2311 95.358C97.0833 95.3808 96.9013 95.412 96.6795 95.4461C96.1704 95.5228 95.4851 95.628 94.6519 95.7558C92.94 96.0172 90.5798 96.4036 87.9721 96.8355C85.3645 97.2674 82.9985 97.6339 81.2809 97.8583C80.4222 97.972 79.7255 98.0544 79.2449 98.1055C79.0231 98.1254 78.8382 98.1425 78.6904 98.1595C78.5624 98.168 78.497 98.1709 78.4941 98.1652C78.4941 98.1595 78.5595 98.1425 78.6847 98.1197C78.8325 98.097 79.0145 98.0658 79.2363 98.0317C79.7454 97.9549 80.4278 97.8498 81.2639 97.722C82.9758 97.4606 85.336 97.0742 87.9437 96.6423C90.5513 96.2104 92.9173 95.8439 94.6349 95.6194C95.4936 95.5058 96.1903 95.4234 96.6709 95.3722C96.8927 95.3524 97.0776 95.3325 97.2254 95.3183C97.3534 95.3069 97.4188 95.304 97.4217 95.3126Z" fill="#263238"/>
<g opacity="0.5">
<path d="M28.1669 38.1945C27.2882 37.5126 26.8958 36.3079 27.0778 35.2112C27.2626 34.1145 27.9707 33.1456 28.8864 32.5149C29.3101 32.225 29.8361 31.9949 30.3309 32.1398C30.7916 32.2762 31.113 32.7223 31.2068 33.1939C31.3006 33.6656 31.1983 34.1543 31.0419 34.6089C30.5016 36.1659 29.694 37.5751 28.1669 38.1945Z" fill="#60B158"/>
<path d="M26.722 40.8542C24.9902 39.2745 22.4622 38.6153 20.1787 39.1438C19.5957 39.2773 18.9417 39.5842 18.845 40.1752C18.7483 40.7661 19.2773 41.2662 19.7948 41.5645C21.9475 42.8118 24.8651 42.576 26.7902 41.002" fill="#60B158"/>
<path d="M18.3758 28.5402C19.3369 28.276 20.3891 28.5147 21.2394 29.0318C22.0896 29.5489 22.755 30.3274 23.2868 31.1684C24.3162 32.7936 24.6802 34.9814 24.7257 36.9049C22.5873 36.8197 20.7616 35.1405 19.8886 34.2284C18.5066 32.7936 16.8857 29.3557 18.3758 28.5402Z" fill="#60B158"/>
<path d="M29.958 43.7611C29.8329 43.5338 29.6282 43.3747 29.4234 42.9571C29.0225 42.1246 28.4822 40.9369 28.2206 39.5277C27.9589 38.1156 28.1352 36.7802 28.4879 35.9108C28.6585 35.4732 28.8518 35.1408 29.0054 34.9305C29.159 34.7174 29.2585 34.6151 29.2699 34.6208C29.3068 34.6436 28.9286 35.0925 28.6329 35.9619C28.3286 36.8228 28.1807 38.1127 28.4338 39.4907C28.6898 40.8687 29.1988 42.0479 29.5656 42.8946" fill="#263238"/>
<path d="M29.9778 43.7865C29.6906 43.4172 29.3181 42.9342 28.8631 42.3517C27.9275 41.1385 26.628 39.465 25.1692 37.6352C23.7104 35.8083 22.3681 34.1689 21.3928 32.987C20.9264 32.4159 20.5368 31.9442 20.2411 31.5834C19.9709 31.251 19.8287 31.0606 19.8373 31.0521C19.8487 31.0435 20.0136 31.214 20.3036 31.5294C20.5937 31.8448 21.006 32.3107 21.5065 32.8904C22.5132 34.0496 23.8753 35.6748 25.3341 37.5045C26.7929 39.3343 28.0754 41.0249 28.9797 42.2636C29.4318 42.883 29.7958 43.3859 30.0375 43.7411" fill="#263238"/>
<path d="M21.5152 40.4055C21.5123 40.3913 21.6431 40.3515 21.8849 40.2918C22.0071 40.2606 22.155 40.2265 22.3313 40.2066C22.5076 40.1839 22.7067 40.1469 22.9313 40.1413C23.3778 40.1072 23.9124 40.1242 24.501 40.2009C25.0868 40.289 25.7238 40.4424 26.3665 40.6868C27.0035 40.9396 27.5779 41.2579 28.0698 41.5874C28.5561 41.9284 28.9628 42.2779 29.267 42.6046C29.4291 42.758 29.5514 42.9228 29.6651 43.0564C29.7817 43.1899 29.8699 43.3149 29.9381 43.4201C30.0775 43.6275 30.0576 43.7241 30.0462 43.7326C30.0121 43.7582 29.7931 43.3206 29.1618 42.7097C28.849 42.4029 28.4395 42.0733 27.9589 41.7494C27.4727 41.4369 26.9096 41.13 26.2897 40.8857C25.6641 40.647 25.0442 40.4936 24.4754 40.397C23.9039 40.3117 23.3806 40.2776 22.9399 40.2918C22.0583 40.3174 21.5237 40.4481 21.5152 40.4055Z" fill="#263238"/>
</g>
<path d="M69.218 112.903L36.3736 112.752C32.4237 112.735 29.2359 109.522 29.253 105.572L29.5999 23.301C29.617 19.3517 32.836 16.1638 36.7887 16.1837L69.6332 16.3343C73.5831 16.3513 76.7708 19.5648 76.7538 23.5141L76.4068 105.785C76.3898 109.735 73.1707 112.923 69.218 112.903Z" fill="#263238"/>
<path d="M69.5849 19.1726L63.2179 19.1442C62.3648 19.1413 61.6681 19.8602 61.6653 20.7523L61.6596 21.9059C61.6568 22.798 60.9601 23.5169 60.107 23.514L47.6943 23.4572C46.8412 23.4544 46.1502 22.727 46.1559 21.8349L46.1616 20.6813C46.1644 19.7892 45.4763 19.0618 44.6232 19.059L42.3824 19.0476L36.8088 19.022C34.0419 19.0107 31.7868 21.241 31.7755 24.0084L31.4371 104.311C31.4257 107.075 33.658 109.326 36.4249 109.34L69.2039 109.49C71.9708 109.505 74.2258 107.271 74.2372 104.504L74.5756 24.2016C74.5841 21.4371 72.3518 19.1868 69.5849 19.1726Z" fill="#FAFAFA"/>
<path d="M51.0357 101.802C51.0329 102.123 50.7314 102.382 50.3561 102.379C49.9836 102.376 49.6821 102.115 49.6821 101.797C49.685 101.475 49.9864 101.217 50.3618 101.22C50.7343 101.22 51.0357 101.481 51.0357 101.802Z" fill="#455A64"/>
<path d="M53.1314 101.81C53.1314 102.132 52.8271 102.39 52.4518 102.387C52.0793 102.384 51.7778 102.123 51.7778 101.805C51.7778 101.484 52.0821 101.225 52.4575 101.228C52.8328 101.231 53.1314 101.489 53.1314 101.81Z" fill="#455A64"/>
<path d="M55.2271 101.822C55.2271 102.143 54.9229 102.401 54.5475 102.399C54.175 102.396 53.8735 102.134 53.8735 101.816C53.8764 101.495 54.1778 101.236 54.5532 101.239C54.9257 101.239 55.2271 101.501 55.2271 101.822Z" fill="#455A64"/>
<path d="M41.5718 57.8877C42.1064 57.9644 74.3252 64.2777 74.3252 64.2777V57.8877H41.5718Z" fill="#EBEBEB"/>
<path d="M31.4341 98.458C31.4341 98.458 66.4852 93.5029 66.1781 93.6563C65.8738 93.8098 31.4341 93.6563 31.4341 93.6563V98.458Z" fill="#EBEBEB"/>
<path d="M72.1384 4.69922C72.1782 4.69922 72.2123 6.46932 72.2123 8.65424C72.2123 10.8392 72.1782 12.6093 72.1384 12.6093C72.0986 12.6093 72.0645 10.8392 72.0645 8.65424C72.0645 6.46932 72.0957 4.69922 72.1384 4.69922Z" fill="#263238"/>
<path d="M86.1634 13.7998C86.1804 13.8367 84.5709 14.5811 82.5718 15.4647C80.5727 16.3455 78.9376 17.0303 78.9205 16.9933C78.9035 16.9564 80.5102 16.212 82.5121 15.3284C84.5112 14.4476 86.1463 13.7628 86.1634 13.7998Z" fill="#263238"/>
<path d="M85.808 0.000118569C85.8137 0.00295982 85.7852 0.0541023 85.7312 0.150705C85.6686 0.261514 85.5862 0.397894 85.4866 0.568369C85.2734 0.932049 84.9577 1.452 84.5596 2.08844C83.7634 3.36416 82.6174 5.10016 81.3207 6.99244C80.0211 8.88471 78.8637 10.6094 78.0448 11.868C77.6438 12.4874 77.3168 12.9932 77.0779 13.3625C76.9698 13.5273 76.8817 13.6609 76.8106 13.766C76.748 13.8569 76.7139 13.9052 76.7082 13.9024C76.7025 13.8995 76.731 13.8484 76.785 13.7518C76.8476 13.641 76.93 13.5046 77.0267 13.3341C77.24 12.9704 77.5557 12.4533 77.9538 11.814C78.75 10.5383 79.896 8.80231 81.1955 6.91004C82.4923 5.01777 83.6525 3.29597 84.4686 2.03445C84.8696 1.41506 85.1966 0.909319 85.4355 0.539956C85.5435 0.375164 85.6317 0.241625 85.7028 0.136499C85.7682 0.0455786 85.8051 -0.00272268 85.808 0.000118569Z" fill="#263238"/>
<path d="M105.469 33.4502H41.3611C39.9763 33.4502 38.853 34.5725 38.853 35.9562V55.825C38.853 57.2087 39.9763 58.331 41.3611 58.331H46.1385C46.5224 60.4051 46.9746 63.0248 46.9746 63.0248L51.2969 58.331H105.472C106.857 58.331 107.98 57.2087 107.98 55.825V35.9562C107.977 34.5725 106.854 33.4502 105.469 33.4502Z" fill="#60B158"/>
<path d="M79.0199 44.2267C79.0199 44.2665 71.3903 44.3006 61.9806 44.3006C52.5681 44.3006 44.9385 44.2665 44.9385 44.2267C44.9385 44.1869 52.5681 44.1528 61.9806 44.1528C71.3903 44.1528 79.0199 44.1869 79.0199 44.2267Z" fill="#F5F5F5"/>
<path d="M79.0199 41.1725C79.0199 41.2123 71.3903 41.2464 61.9806 41.2464C52.5681 41.2464 44.9385 41.2123 44.9385 41.1725C44.9385 41.1327 52.5681 41.0986 61.9806 41.0986C71.3903 41.0986 79.0199 41.1327 79.0199 41.1725Z" fill="#F5F5F5"/>
<path d="M79.0199 47.2472C79.0199 47.287 71.3903 47.3211 61.9806 47.3211C52.5681 47.3211 44.9385 47.287 44.9385 47.2472C44.9385 47.2074 52.5681 47.1733 61.9806 47.1733C71.3903 47.1733 79.0199 47.2074 79.0199 47.2472Z" fill="#F5F5F5"/>
<path d="M67.2613 50.3781C67.2613 50.4178 62.2621 50.4519 56.0999 50.4519C49.9348 50.4519 44.9385 50.4178 44.9385 50.3781C44.9385 50.3383 49.9348 50.3042 56.0999 50.3042C62.265 50.3042 67.2613 50.3355 67.2613 50.3781Z" fill="#F5F5F5"/>
<path d="M76.5037 69.1699H11.8698C10.9001 69.1699 10.1152 69.9541 10.1152 70.923V91.9454C10.1152 92.9143 10.9001 93.6985 11.8698 93.6985H58.8132L63.0872 98.3382C63.0872 98.3382 63.5365 95.73 63.9119 93.6985H76.5037C77.4734 93.6985 78.2582 92.9143 78.2582 91.9454V70.923C78.2582 69.9541 77.4734 69.1699 76.5037 69.1699Z" fill="#FFA700"/>
<path d="M73.9696 80.012C73.9696 80.0518 66.34 80.0859 56.9303 80.0859C47.5178 80.0859 39.8882 80.0518 39.8882 80.012C39.8882 79.9722 47.5178 79.9382 56.9303 79.9382C66.3372 79.9353 73.9696 79.9694 73.9696 80.012Z" fill="#F5F5F5"/>
<path d="M73.9696 76.9577C73.9696 76.9974 66.34 77.0315 56.9303 77.0315C47.5178 77.0315 39.8882 76.9974 39.8882 76.9577C39.8882 76.9179 47.5178 76.8838 56.9303 76.8838C66.3372 76.8838 73.9696 76.915 73.9696 76.9577Z" fill="#F5F5F5"/>
<path d="M73.9696 83.0324C73.9696 83.0721 66.34 83.1062 56.9303 83.1062C47.5178 83.1062 39.8882 83.0721 39.8882 83.0324C39.8882 82.9926 47.5178 82.9585 56.9303 82.9585C66.3372 82.9585 73.9696 82.9897 73.9696 83.0324Z" fill="#F5F5F5"/>
<path d="M62.211 86.1603C62.211 86.2001 57.2119 86.2342 51.0496 86.2342C44.8845 86.2342 39.8882 86.2001 39.8882 86.1603C39.8882 86.1205 44.8845 86.0864 51.0496 86.0864C57.2119 86.0864 62.211 86.1177 62.211 86.1603Z" fill="#F5F5F5"/>
<path d="M89.3535 25.023C89.3905 24.5002 88.9241 23.7814 88.4947 23.3665C88.0625 22.9517 87.7952 22.392 88.0198 21.5567C88.1933 20.9117 88.6028 20.96 88.7649 20.5793C88.8843 20.298 88.8331 19.9769 88.8587 19.6729C88.944 18.6273 90.0929 17.8091 91.1109 18.0705C91.3981 17.076 92.3252 16.3004 93.3546 16.1952C94.384 16.0873 95.4504 16.6555 95.9366 17.5704C96.5253 17.2664 97.2646 17.2749 97.8419 17.5988C98.4192 17.9227 98.8201 18.5421 98.8685 19.2041C99.44 18.7921 100.319 18.9512 100.774 19.4911C101.226 20.0338 101.254 20.8606 100.91 21.4771C100.566 22.0937 99.9007 22.4943 99.2012 22.6023C98.5045 22.7102 97.7822 22.5454 97.148 22.23C96.5167 21.9147 95.9651 21.4572 95.4646 20.96" fill="#263238"/>
<path d="M94.0031 57.6746C100.802 57.6746 106.313 52.2962 106.313 45.6617C106.313 39.0272 100.802 33.6489 94.0031 33.6489C87.2044 33.6489 81.6929 39.0272 81.6929 45.6617C81.6929 52.2962 87.2044 57.6746 94.0031 57.6746Z" fill="#E0E0E0"/>
<path d="M106.365 45.6701L105.003 42.1782L100.12 45.2439L104.471 51.9493C104.471 51.9493 106.24 49.6536 106.365 45.6701Z" fill="#EB996E"/>
<path d="M92.8828 38.1125C94.6373 38.1153 96.0848 36.7544 96.1729 35.0184C96.244 33.5722 96.3066 32.18 96.3066 32.18C96.3066 32.18 98.9938 31.9867 99.2412 29.3614C99.4886 26.7361 99.5228 20.67 99.5228 20.67C96.5597 19.1159 92.9795 19.2722 90.1642 21.0763L89.9083 21.2411L89.5983 34.8195C89.5784 36.6294 91.0543 38.1096 92.8828 38.1125Z" fill="#FFBE9D"/>
<path d="M94.4243 24.7046C94.6262 24.77 94.7371 24.9887 94.6689 25.1876C94.6006 25.3894 94.3816 25.4973 94.1798 25.4291C93.9779 25.3638 93.8669 25.145 93.9352 24.9461C94.0034 24.7472 94.2224 24.6393 94.4243 24.7046Z" fill="#1E2538"/>
<path d="M95.1606 24.8412C95.1151 24.8838 94.8677 24.6707 94.5009 24.648C94.134 24.6196 93.8582 24.7958 93.8212 24.7475C93.8013 24.7247 93.8497 24.6452 93.9691 24.5656C94.0885 24.4861 94.2876 24.4122 94.5151 24.4292C94.7426 24.4463 94.9303 24.5457 95.0355 24.6423C95.1464 24.7389 95.1805 24.8242 95.1606 24.8412Z" fill="#1E2538"/>
<path d="M98.4346 24.7046C98.6365 24.77 98.7474 24.9887 98.6791 25.1876C98.6109 25.3894 98.3919 25.4973 98.19 25.4291C97.9881 25.3638 97.8772 25.145 97.9454 24.9461C98.0137 24.7472 98.2327 24.6393 98.4346 24.7046Z" fill="#1E2538"/>
<path d="M99.2187 24.8498C99.1732 24.8925 98.9258 24.6794 98.559 24.6566C98.1921 24.6282 97.9163 24.8044 97.8793 24.7561C97.8594 24.7333 97.9078 24.6538 98.0272 24.5742C98.1466 24.4947 98.3457 24.4237 98.5732 24.4379C98.8007 24.4549 98.9884 24.5543 99.0936 24.651C99.2045 24.7447 99.2414 24.8299 99.2187 24.8498Z" fill="#1E2538"/>
<path d="M96.46 27.688C96.46 27.6595 96.6903 27.6311 97.06 27.6112C97.1567 27.6084 97.2334 27.5942 97.2448 27.5431C97.2676 27.4862 97.2391 27.3839 97.1993 27.2675C97.1254 27.0203 97.0486 26.7702 96.9718 26.5088C96.659 25.4292 96.4486 24.5427 96.5055 24.5256C96.5595 24.5086 96.8609 25.3723 97.1737 26.452C97.2477 26.7162 97.3188 26.9663 97.387 27.2135C97.4126 27.3271 97.4695 27.4578 97.4069 27.6112C97.3728 27.688 97.2932 27.7391 97.2306 27.7505C97.1652 27.7647 97.1112 27.759 97.0657 27.759C96.6903 27.7391 96.46 27.7164 96.46 27.688Z" fill="#1E2538"/>
<path d="M96.3124 32.1431C96.3124 32.1431 94.6261 32.1431 92.9341 30.8901C92.9341 30.8901 93.5967 32.8478 96.264 32.8222L96.3124 32.1431Z" fill="#EB996E"/>
<path d="M89.843 25.0941C89.8458 24.881 89.6809 24.6992 89.4676 24.6878C88.9728 24.6651 88.1567 24.8441 88.0543 26.1965C87.9093 28.1286 89.7975 27.6825 89.8032 27.6285C89.8117 27.583 89.8345 25.8442 89.843 25.0941Z" fill="#FFBE9D"/>
<path d="M89.3909 26.8585C89.3824 26.8528 89.354 26.8784 89.2971 26.9011C89.2402 26.921 89.1407 26.9324 89.044 26.8869C88.845 26.796 88.6942 26.4607 88.7113 26.1113C88.7198 25.9351 88.7682 25.7703 88.8421 25.6368C88.9132 25.5004 89.0127 25.4066 89.118 25.3981C89.2232 25.3811 89.2914 25.4493 89.3113 25.5061C89.3341 25.5629 89.317 25.5998 89.3284 25.6027C89.3341 25.6084 89.3739 25.5743 89.3625 25.4919C89.3568 25.4521 89.3369 25.4066 89.2943 25.364C89.2516 25.3214 89.1833 25.2987 89.1094 25.3015C88.9587 25.3015 88.8137 25.4265 88.7312 25.5743C88.643 25.722 88.5833 25.9067 88.572 26.1027C88.5549 26.492 88.7284 26.8727 89.0042 26.975C89.1378 27.0205 89.2573 26.9892 89.3199 26.9466C89.3824 26.904 89.3966 26.8642 89.3909 26.8585Z" fill="#EB996E"/>
<path d="M93.4286 23.8124C93.5253 23.9374 93.8608 23.8778 94.2988 23.8607C94.7338 23.8266 95.0751 23.8437 95.1547 23.7073C95.2457 23.5681 94.822 23.2442 94.2618 23.2925C93.6988 23.3124 93.3205 23.6846 93.4286 23.8124Z" fill="#1E2538"/>
<path d="M97.6886 23.6846C97.7427 23.8522 98.0612 23.9034 98.4166 23.9005C98.7721 23.892 99.0906 23.8352 99.1389 23.6647C99.1901 23.4999 98.8659 23.2612 98.4081 23.2698C97.9503 23.2754 97.6346 23.5198 97.6886 23.6846Z" fill="#1E2538"/>
<path d="M99.8953 21.4999C99.8953 21.4999 98.3029 22.2699 96.227 21.2357C94.8649 20.5566 93.2809 20.2242 92.9311 20.4998C92.5814 20.7726 92.5074 22.1733 91.1595 22.5824C91.1595 22.5824 91.2534 25.2561 90.1842 25.1595C89.1178 25.0629 89.7832 20.9232 89.7832 20.9232L92.3937 19.6503L95.2402 19.1133L97.9246 19.4912L100.001 20.0594L99.8953 21.4999Z" fill="#1E2538"/>
<path d="M82.0342 36.9675C84.8238 34.1006 89.732 34.416 89.732 34.416L93.8013 37.3255L96.1075 34.6405C96.1075 34.6405 98.5332 34.9076 100.805 36.0924L100.962 36.1407L100.959 36.1719C102.745 37.1408 105.27 39.4621 107.678 41.7152L104.798 44.386L101.61 47.213C101.61 47.213 101.621 47.2329 101.616 47.2698C101.582 47.4403 102.059 51.3328 102.548 54.2877C99.6451 57.058 95.9426 58.2428 91.8335 57.5211C90.5282 57.2938 89.8969 56.9756 88.6912 56.6573C86.9054 56.1885 85.6115 54.6429 85.4523 52.8046C85.2362 50.327 85.0684 47.2585 85.0684 47.2585" fill="#1E2538"/>
<path d="M98.6583 35.1431C98.6668 35.1403 98.7294 35.3022 98.8346 35.6005C98.9398 35.8989 99.082 36.3307 99.2498 36.8677C99.5853 37.9417 100.015 39.4391 100.419 41.1097C100.822 42.7804 101.124 44.309 101.317 45.4171C101.414 45.9711 101.485 46.4229 101.528 46.7326C101.57 47.0451 101.59 47.2184 101.582 47.2184C101.57 47.2213 101.533 47.0508 101.471 46.7411C101.405 46.4087 101.32 45.9683 101.215 45.4341C100.996 44.3317 100.677 42.8088 100.276 41.141C99.8725 39.4732 99.4631 37.9758 99.1531 36.8933C99.0024 36.3705 98.8773 35.9387 98.7834 35.6119C98.6924 35.3136 98.6498 35.1459 98.6583 35.1431Z" fill="#1E2538"/>
<path d="M101.277 45.386C101.252 45.3548 102.469 44.3206 103.993 43.0789C105.52 41.8373 106.777 40.8542 106.803 40.8855C106.828 40.9167 105.611 41.951 104.087 43.1926C102.563 44.4342 101.303 45.4173 101.277 45.386Z" fill="#1E2538"/>
<path opacity="0.2" d="M85.714 40.9023L83.2173 49.105L84.1472 49.588L85.0628 47.2667C85.0628 47.2667 86.0041 42.394 85.714 40.9023Z" fill="black"/>
<g opacity="0.2">
<path opacity="0.2" d="M98.3883 35.1461C99.7333 35.8536 96.3607 37.5612 94.8394 37.5157L95.9455 34.6006C95.9455 34.6006 97.9361 34.9103 98.3883 35.1461Z" fill="black"/>
</g>
<path d="M89.3311 34.6008V32.4272C89.3311 32.4272 93.5767 33.5183 93.7331 36.0584C93.7331 36.0584 94.2734 33.2512 96.4602 33.1177L96.7701 37.0642L94.225 39.2775H91.643L89.5984 37.5159L89.3311 34.7741" fill="#1E2538"/>
<path d="M94.6858 48.2361C94.6744 48.2361 94.6744 48.0684 94.6773 47.7701C94.683 47.4689 94.6887 47.0342 94.6915 46.5001C94.6944 45.4261 94.6602 43.9458 94.5266 42.3149C94.3901 40.684 94.1796 39.2151 93.9976 38.1581C93.9066 37.6496 93.8327 37.2262 93.7758 36.908C93.7218 36.6125 93.6962 36.4477 93.7047 36.4449C93.7161 36.442 93.7588 36.604 93.8299 36.8938C93.9038 37.1864 93.9948 37.6098 94.1 38.1382C94.3076 39.1924 94.5379 40.6641 94.6744 42.3007C94.8109 43.9372 94.828 45.4261 94.7967 46.5001C94.7825 47.0371 94.7598 47.4718 94.737 47.7729C94.7143 48.0713 94.6972 48.2361 94.6858 48.2361Z" fill="#1E2538"/>
<path d="M93.5368 35.3284C93.534 35.3397 93.4402 35.2914 93.2838 35.3511C93.1217 35.4022 92.9766 35.604 92.8572 35.8938C92.5956 36.4592 92.2743 37.2718 92.0496 38.2406L92.0269 38.3372L91.9415 38.2861C91.6885 38.1327 91.4268 37.9679 91.1652 37.7889C90.659 37.4451 90.1927 37.0928 89.7889 36.7433C89.5841 36.5671 89.4164 36.3569 89.3197 36.1296C89.223 35.9023 89.186 35.6778 89.1775 35.4733C89.1604 35.0641 89.2287 34.7431 89.2713 34.5243C89.3197 34.3055 89.3538 34.1862 89.3652 34.189C89.3765 34.1919 89.3595 34.314 89.3282 34.5356C89.3026 34.7573 89.2514 35.0783 89.2827 35.4704C89.2998 35.6636 89.3396 35.8767 89.4334 36.0813C89.5273 36.2859 89.6808 36.4762 89.8799 36.641C90.2808 36.9763 90.7472 37.3258 91.2505 37.6667C91.5093 37.8429 91.7681 38.0077 92.0183 38.1611L91.9103 38.2066C92.1434 37.2263 92.4875 36.4109 92.7747 35.8511C92.8458 35.7119 92.9141 35.5841 92.9994 35.4846C93.0819 35.3852 93.1842 35.3255 93.2695 35.2999C93.4487 35.2516 93.5425 35.3255 93.5368 35.3284Z" fill="#1E2538"/>
<path d="M96.46 33.1177C96.4714 33.1177 96.4827 33.237 96.4998 33.4558C96.5169 33.7058 96.5396 34.0155 96.568 34.3792C96.5993 34.7684 96.6477 35.2316 96.7273 35.7402C96.7586 35.9902 96.8467 36.2658 96.7785 36.5726C96.6903 36.8767 96.4628 37.104 96.2211 37.2858C95.8799 37.5387 95.5244 37.7262 95.2855 37.9961L95.1718 38.124L95.1604 37.9535C95.1007 37.0557 94.8021 36.3169 94.532 35.8368C94.2618 35.3537 94.04 35.1037 94.0571 35.0895C94.0628 35.0838 94.1225 35.1406 94.2249 35.2571C94.3244 35.3736 94.4637 35.5498 94.6088 35.7913C94.9045 36.2686 95.2315 37.0187 95.2998 37.9421L95.1746 37.8995C95.4334 37.604 95.8031 37.408 96.1273 37.1665C96.3576 36.9931 96.5624 36.7801 96.6334 36.5357C96.6932 36.2857 96.6192 36.0158 96.5879 35.7572C96.514 35.2429 96.477 34.7741 96.46 34.382C96.4401 33.9899 96.4372 33.6717 96.4401 33.4529C96.4429 33.2398 96.4486 33.1177 96.46 33.1177Z" fill="#1E2538"/>
<path d="M110.129 33.6636C109.956 33.8681 103.706 42.2186 103.706 42.2186L104.587 42.7158L111.002 34.4705L110.129 33.6636Z" fill="#1E2538"/>
<path d="M85.0112 40.2664C85.0112 40.2664 91.5886 49.7249 91.9839 49.9124C92.7659 50.2789 101.763 42.5081 102.622 41.7666C102.742 41.6074 102.983 41.275 103.464 40.613C103.464 40.613 104.175 37.3683 104.931 37.6155C105.688 37.8655 104.516 39.2663 105.011 40.4994C105.506 41.7325 107.763 38.7918 107.854 38.5275L108.437 37.7661C108.437 37.7661 109.049 39.4964 109.006 40.2209C108.872 42.5365 106.68 45.2897 106.68 45.2897C106.68 45.2897 96.8323 57.4787 90.0872 57.8566C88.1449 57.9645 84.6927 52.4582 82.3836 48.327C80.9902 45.8324 81.6841 42.69 83.996 41.0079L85.0112 40.2664Z" fill="#FFBE9D"/>
<path d="M107.9 40.6304C107.877 40.6162 108.087 40.244 108.321 39.7723C108.554 39.3007 108.721 38.9086 108.747 38.9171C108.77 38.9257 108.636 39.3348 108.4 39.8121C108.164 40.2895 107.917 40.6446 107.9 40.6304Z" fill="#EB996E"/>
<path d="M83.8995 35.6494C83.8995 35.6494 76.8386 38.1582 82.0881 50.0176L90.238 45.1023L89.0778 42.3292L83.8995 35.6494Z" fill="#1E2538"/>
<path d="M83.3563 35.8539C83.3563 35.8539 83.6634 35.8027 84.2065 35.9249C84.4738 35.9931 84.7952 36.1124 85.1336 36.3142C85.472 36.5159 85.8217 36.8 86.163 37.158C86.8483 37.8712 87.4881 38.8684 88.0796 40.0192C88.6768 41.1727 89.2341 42.4854 89.8057 43.8662C89.9763 44.281 90.147 44.6873 90.3062 45.0737L90.3318 45.1362L90.2749 45.1675C87.9175 46.4517 85.8644 47.6536 84.4113 48.5543C83.6861 49.0032 83.106 49.3726 82.7108 49.6283C82.5202 49.7504 82.3695 49.847 82.2529 49.9209C82.1477 49.9863 82.0908 50.0204 82.088 50.0147C82.0852 50.0118 82.1363 49.9692 82.2359 49.8982C82.3354 49.8243 82.4833 49.7163 82.6795 49.5828C83.0662 49.3129 83.6378 48.9293 84.3572 48.469C85.7961 47.5456 87.8436 46.3267 90.201 45.0368L90.1697 45.1306C90.0105 44.7442 89.8398 44.3379 89.6692 43.923C89.0976 42.5422 88.546 41.2324 87.9573 40.0817C87.3744 38.931 86.7488 37.9394 86.0862 37.229C85.7563 36.8739 85.4179 36.5898 85.0909 36.3852C84.7639 36.1806 84.4539 36.0556 84.1952 35.9789C83.6662 35.8454 83.3563 35.8766 83.3563 35.8539Z" fill="#1E2538"/>
<path d="M98.5444 18.2695C98.5501 18.2695 98.5615 18.3121 98.5786 18.3945C98.5928 18.4769 98.6098 18.602 98.5985 18.7639C98.5814 19.0793 98.4677 19.568 98.061 19.9942C97.6657 20.4204 96.9179 20.6903 96.1614 20.4743C95.7918 20.3664 95.4164 20.1419 95.1889 19.7697C95.078 19.585 95.0126 19.3577 95.0439 19.1276C95.0752 18.9031 95.1889 18.6758 95.3936 18.5423C95.5984 18.4031 95.8685 18.4059 96.0761 18.4997C96.2866 18.5878 96.46 18.7611 96.5425 18.9685C96.7103 19.3861 96.5851 19.8351 96.3548 20.1504C95.8657 20.7982 94.9813 20.8494 94.4894 20.5567C94.2306 20.4374 94.0031 20.3266 93.787 20.2868C93.5737 20.2442 93.3832 20.2811 93.2438 20.3436C92.9652 20.4772 92.8514 20.6249 92.84 20.6107C92.8372 20.6079 92.8656 20.5738 92.9225 20.5141C92.9509 20.4829 92.9879 20.4459 93.0391 20.409C93.0874 20.3721 93.1443 20.3266 93.2211 20.2925C93.3633 20.2158 93.5709 20.1675 93.804 20.2073C94.0372 20.2414 94.2761 20.3522 94.5349 20.463C94.6657 20.5141 94.7993 20.5738 94.9444 20.5994C95.0865 20.6249 95.2458 20.6221 95.4022 20.5908C95.715 20.534 96.0363 20.3635 96.2467 20.0737C96.4515 19.7924 96.5539 19.3805 96.4088 19.0281C96.2809 18.6844 95.8031 18.4542 95.4733 18.6701C95.314 18.7753 95.2145 18.9628 95.1889 19.1532C95.1605 19.3435 95.2145 19.5367 95.314 19.7015C95.5131 20.0311 95.8572 20.247 96.2012 20.3493C96.9036 20.5596 97.6089 20.3209 97.9899 19.926C98.3852 19.5339 98.5132 19.0708 98.5444 18.7639C98.5757 18.4457 98.5274 18.2724 98.5444 18.2695Z" fill="#455A64"/>
<path d="M97.0062 28.9837C97.009 29.0007 96.918 29.0377 96.7616 29.0462C96.6052 29.0547 96.3862 29.0178 96.1701 28.9098C95.9569 28.8018 95.7976 28.6456 95.7095 28.5149C95.6213 28.3842 95.5985 28.2904 95.6156 28.2819C95.6526 28.2592 95.8431 28.5831 96.2384 28.7763C96.6308 28.9808 97.0033 28.9411 97.0062 28.9837Z" fill="#263238"/>
<path d="M89.5498 27.7277C89.564 27.7164 89.6437 27.8527 89.5385 28.0488C89.4873 28.1397 89.3934 28.2392 89.2484 28.2789C89.1034 28.3187 88.9299 28.2733 88.8076 28.1624C88.6825 28.0545 88.6143 27.8954 88.62 27.7505C88.6256 27.6056 88.6854 27.4891 88.7508 27.4095C88.8873 27.2504 89.0266 27.2334 89.0294 27.2504C89.0408 27.2703 88.9299 27.3214 88.8361 27.472C88.7394 27.6112 88.7024 27.884 88.9043 28.0516C88.9982 28.1312 89.1176 28.1681 89.2171 28.1454C89.3195 28.1255 89.3991 28.0602 89.4503 27.992C89.5527 27.8527 89.5271 27.7306 89.5498 27.7277Z" fill="#263238"/>
<path d="M99.0133 19.2267C99.0275 19.221 99.1327 19.4085 99.1498 19.7495C99.1697 20.0819 99.073 20.5791 98.7289 20.9797C98.3792 21.3804 97.9043 21.5451 97.5687 21.5707C97.2303 21.602 97.0284 21.5224 97.0313 21.5082C97.0341 21.4826 97.2389 21.5196 97.5545 21.4656C97.8645 21.4144 98.2967 21.244 98.6152 20.8803C98.9308 20.5138 99.0389 20.062 99.0446 19.7495C99.0531 19.4284 98.9877 19.2324 99.0133 19.2267Z" fill="#455A64"/>
<path d="M89.3961 42.9996C89.4132 43.0366 87.5392 43.9997 85.2074 45.1505C82.8756 46.3012 80.9731 47.2047 80.9532 47.1706C80.9362 47.1336 82.8102 46.1705 85.142 45.0198C87.4738 43.8662 89.3762 42.9627 89.3961 42.9996Z" fill="#E0E0E0"/>
<path d="M87.6875 39.7749C87.7074 39.8118 86.0382 40.7438 83.9595 41.8575C81.8807 42.9713 80.1802 43.8464 80.1603 43.8095C80.1404 43.7725 81.8097 42.8406 83.8884 41.7268C85.9671 40.6159 87.6676 39.7408 87.6875 39.7749Z" fill="#E0E0E0"/>
<path d="M86.035 37.1693C86.0435 37.1892 85.7222 37.371 85.1989 37.6637C84.6387 37.9762 83.9363 38.3683 83.1572 38.803C82.3837 39.2434 81.6813 39.644 81.1268 39.9594C80.6064 40.2549 80.2822 40.4367 80.2708 40.4168C80.2594 40.3998 80.5637 40.1895 81.0727 39.8685C81.5789 39.5474 82.287 39.1212 83.0861 38.6723C83.8823 38.2234 84.616 37.837 85.1506 37.5699C85.688 37.3028 86.0264 37.1522 86.035 37.1693Z" fill="#E0E0E0"/>
<path d="M92.2797 36.5528C92.2769 36.5698 92.0579 36.5414 91.7309 36.4051C91.4038 36.2715 90.9801 36.0158 90.582 35.6578C90.1811 35.2998 89.8711 34.9276 89.655 34.6548C89.4389 34.3792 89.3194 34.2031 89.3337 34.1889C89.3507 34.1747 89.4986 34.3309 89.7346 34.5867C89.9706 34.8424 90.2891 35.1975 90.6816 35.547C91.0711 35.8965 91.4721 36.1579 91.7764 36.3113C92.0806 36.4676 92.2882 36.5329 92.2797 36.5528Z" fill="#E0E0E0"/>
<path d="M96.4286 35.0156C96.4655 35.0269 96.2921 35.4872 95.8371 35.8679C95.385 36.2515 94.9015 36.3424 94.8958 36.3055C94.8816 36.2629 95.3196 36.1151 95.7404 35.7571C96.1698 35.3991 96.3888 34.9928 96.4286 35.0156Z" fill="#E0E0E0"/>
<path d="M103.822 39.2919C103.822 39.2975 103.768 39.3061 103.663 39.3203C103.541 39.3345 103.39 39.3544 103.205 39.3771C102.807 39.4197 102.23 39.4765 101.519 39.5305C100.091 39.6442 98.1178 39.755 95.9367 39.8345C93.7556 39.9113 91.7792 39.9397 90.346 39.9283C89.6294 39.9226 89.0521 39.9084 88.6512 39.8942C88.4635 39.8857 88.3128 39.8772 88.1905 39.8715C88.0853 39.8658 88.0312 39.8573 88.0312 39.8544C88.0312 39.8488 88.0881 39.8459 88.1933 39.8431C88.3156 39.8431 88.4663 39.8402 88.654 39.8402C89.0749 39.8374 89.6465 39.8317 90.346 39.826C91.7764 39.8118 93.7499 39.7664 95.931 39.6896C98.1092 39.6101 100.083 39.5163 101.51 39.4282C102.207 39.3828 102.781 39.3487 103.199 39.3203C103.384 39.3089 103.538 39.3004 103.66 39.2919C103.768 39.2862 103.822 39.2862 103.822 39.2919Z" fill="#E0E0E0"/>
<path d="M101.579 42.6586C101.579 42.67 101.414 42.6956 101.112 42.7325C100.811 42.7694 100.373 42.8177 99.8297 42.866C98.7462 42.9655 97.2476 43.0678 95.5897 43.1359C93.9319 43.2013 92.4276 43.2212 91.3413 43.2098C90.7981 43.2041 90.3574 43.1928 90.0531 43.1814C89.7488 43.1672 89.5811 43.1558 89.5811 43.1445C89.5811 43.1331 89.7488 43.1274 90.0531 43.1217C90.383 43.1161 90.8152 43.1104 91.3413 43.1047C92.4276 43.0905 93.929 43.0564 95.5841 42.9882C97.2391 42.92 98.7377 42.8348 99.824 42.7609C100.347 42.7268 100.779 42.6956 101.109 42.6757C101.408 42.6558 101.576 42.6501 101.579 42.6586Z" fill="#E0E0E0"/>
<path d="M96.4799 46.8156C96.4828 46.8355 96.1216 46.8895 95.5387 46.9492C94.9529 47.0089 94.1453 47.0742 93.2495 47.1197C92.3538 47.1651 91.5433 47.1793 90.9547 47.1793C90.366 47.1765 90.0049 47.1594 90.0049 47.1395C90.0049 47.1197 90.3689 47.0998 90.9547 47.0742C91.5831 47.0458 92.3708 47.0117 93.2438 46.9719C94.1168 46.9236 94.9045 46.881 95.533 46.8469C96.1159 46.81 96.4799 46.7958 96.4799 46.8156Z" fill="#E0E0E0"/>
<path d="M89.9652 36.9535C89.9652 36.9962 89.0922 37.0047 88.0173 37.0501C86.9424 37.0928 86.0722 37.1553 86.0694 37.1126C86.0637 37.0729 86.931 36.945 88.0116 36.9024C89.0894 36.8598 89.9652 36.9166 89.9652 36.9535Z" fill="#E0E0E0"/>
<path d="M101.959 36.7999C101.959 36.8396 100.828 36.8709 99.4314 36.8652C98.0352 36.8595 96.9034 36.8226 96.9063 36.7828C96.9063 36.743 98.038 36.7118 99.4343 36.7175C100.831 36.7231 101.959 36.7601 101.959 36.7999Z" fill="#E0E0E0"/>
<path d="M102.398 54.089C102.403 54.0975 102.31 54.1515 102.139 54.2367C101.968 54.3248 101.715 54.4413 101.4 54.572C100.765 54.8391 99.8669 55.1516 98.846 55.3874C97.8223 55.6233 96.8782 55.7341 96.19 55.771C95.8459 55.7909 95.5701 55.7966 95.3767 55.7909C95.1833 55.7881 95.0781 55.7795 95.0781 55.771C95.0781 55.7483 95.5018 55.7312 96.1815 55.6659C96.8611 55.6005 97.7967 55.4755 98.8119 55.2425C99.8271 55.0067 100.723 54.7141 101.36 54.4726C102 54.2396 102.386 54.0691 102.398 54.089Z" fill="#E0E0E0"/>
<path d="M25.5818 92.7636C32.3805 92.7636 37.892 87.51 37.892 81.0293C37.892 74.5486 32.3805 69.2949 25.5818 69.2949C18.783 69.2949 13.2715 74.5486 13.2715 81.0293C13.2715 87.51 18.783 92.7636 25.5818 92.7636Z" fill="#E0E0E0"/>
<path d="M23.0738 52.7393C21.1202 52.8415 20.3552 54.8759 20.1192 55.3305C19.886 55.7851 19.8491 56.3107 19.8064 56.8193C19.7638 57.3279 19.704 57.8564 19.4311 58.2882C19.0017 58.973 18.0974 59.3281 17.8528 60.0981C17.5741 60.9704 18.2879 61.9023 18.0974 62.7973C17.995 63.2775 17.6452 63.6724 17.5201 64.1469C17.3893 64.6441 17.5258 65.1783 17.7846 65.6215C18.4272 66.7211 19.7552 67.2751 21.0292 67.3206C22.3032 67.366 23.5487 66.9853 24.7686 66.6074" fill="#263238"/>
<path d="M31.6673 55.2681C31.4767 55.68 31.6559 56.1829 31.9573 56.5239C32.2559 56.8677 32.6597 57.0978 33.0152 57.3848C33.3706 57.6689 33.6948 58.0468 33.7375 58.4986C33.7744 58.9134 33.5668 59.3282 33.6237 59.7402C33.7687 60.8028 35.4664 61.1239 35.5574 62.1922C35.6171 62.9054 34.8863 63.5588 35.0882 64.2436C35.165 64.505 35.3697 64.7096 35.5119 64.9454C35.9925 65.7438 35.6683 66.8462 34.9688 67.4656C34.2721 68.085 33.2995 68.3037 32.3668 68.3464C31.582 68.3805 30.6919 68.2526 30.2284 67.619C29.8047 67.0394 29.8928 66.2467 29.9781 65.5335C30.3734 62.2036 30.3051 58.8395 30.2369 55.4868" fill="#263238"/>
<path d="M23.5894 70.6759C23.6036 68.9257 23.5865 67.0845 23.5865 67.0845C23.5865 67.0845 21.3343 66.6839 20.9021 63.7375C20.4897 60.9275 21.1893 54.887 21.1893 54.887C24.451 53.6028 28.1222 54.1 30.4056 56.7225L30.0502 70.9287C30.0104 72.5767 28.5573 73.8552 26.7913 73.7984C25.0083 73.7387 23.5751 72.3408 23.5894 70.6759Z" fill="#FFBE9D"/>
<path d="M21.8026 59.5266C21.794 59.7255 21.9533 59.8988 22.1609 59.9102C22.3685 59.9244 22.5448 59.7738 22.5533 59.5749C22.5618 59.376 22.4026 59.2027 22.195 59.1914C21.9874 59.1772 21.8111 59.3277 21.8026 59.5266Z" fill="#263238"/>
<path d="M21.1941 59.237C21.2396 59.2881 21.5297 59.0779 21.9335 59.0836C22.6984 59.1944 22.6842 59.3109 22.6785 59.2455C22.7013 59.2228 22.6529 59.1347 22.525 59.0381C22.397 58.9415 22.1809 58.8477 21.9278 58.8477C21.6747 58.8449 21.4614 58.9358 21.3363 59.0296C21.2169 59.1262 21.1714 59.2143 21.1941 59.237Z" fill="#263238"/>
<path d="M25.9574 59.6458C25.9488 59.8447 26.1081 60.018 26.3157 60.0293C26.5232 60.0435 26.6996 59.893 26.7081 59.6941C26.7166 59.4952 26.5574 59.3219 26.3498 59.3105C26.145 59.2963 25.9687 59.4469 25.9574 59.6458Z" fill="#263238"/>
<path d="M25.4316 59.3761C25.4771 59.4273 25.7672 59.217 26.171 59.2227C26.5776 59.2227 26.8734 59.4358 26.916 59.3847C26.9388 59.3619 26.8904 59.2739 26.7625 59.1772C26.6345 59.0806 26.4184 58.9869 26.1653 58.9869C25.9122 58.984 25.6989 59.075 25.5738 59.1687C25.4515 59.2653 25.4089 59.3534 25.4316 59.3761Z" fill="#263238"/>
<path d="M23.9218 62.2856C23.9247 62.2629 23.6716 62.2174 23.2649 62.1578C23.1626 62.1464 23.063 62.1237 23.046 62.0526C23.0232 61.9788 23.0659 61.8651 23.1199 61.7458C23.2194 61.4958 23.3246 61.2344 23.4355 60.9616C23.8735 59.8421 24.192 58.9244 24.1493 58.9045C24.1038 58.8875 23.7114 59.7796 23.2735 60.8991C23.1682 61.1747 23.0659 61.4389 22.9692 61.689C22.9294 61.8054 22.8583 61.939 22.9095 62.0953C22.9379 62.172 23.0118 62.2288 23.0772 62.2487C23.1426 62.2686 23.2024 62.2714 23.2535 62.2743C23.6659 62.3055 23.9218 62.3084 23.9218 62.2856Z" fill="#263238"/>
<path d="M23.5859 67.0844C23.5859 67.0844 25.5651 67.235 27.5386 66.0786C27.5386 66.0786 26.5604 68.0874 23.6172 67.7777L23.5859 67.0844Z" fill="#EB996E"/>
<path d="M24.0834 63.2658C24.2312 63.0754 24.49 62.9703 24.7431 63.0015C24.9194 63.0214 25.0957 63.1095 25.2009 63.2544C25.3062 63.3993 25.3261 63.6039 25.2265 63.7374C25.1156 63.8908 24.8853 63.9221 24.6919 63.8653C24.4985 63.8084 24.3336 63.6778 24.1772 63.5499C24.1346 63.513 24.0891 63.476 24.0635 63.4277C24.0379 63.3794 24.0322 63.3169 24.0663 63.2771" fill="#EB996E"/>
<path d="M25.1131 62.5811C25.0477 62.5754 25.042 63.0158 24.6609 63.3255C24.2799 63.6352 23.8107 63.5812 23.8078 63.6409C23.8021 63.6693 23.9102 63.729 24.1093 63.7347C24.3026 63.7432 24.5898 63.6835 24.8202 63.496C25.0534 63.3056 25.1557 63.0528 25.1728 62.8709C25.1927 62.6891 25.1444 62.5783 25.1131 62.5811Z" fill="#263238"/>
<path d="M29.1283 54.6256C28.0505 56.1599 25.2012 57.7368 23.1594 58.1033C23.3983 57.7907 24.6524 57.0179 24.8912 56.7054C23.967 57.3958 22.6419 58.3192 21.4134 58.3817C21.2684 58.3902 21.112 58.3902 20.9925 58.3164C20.8305 58.2169 20.7963 58.0237 20.7793 57.8533C20.6996 57.1344 20.7508 55.9013 20.8646 55.1882C20.9783 54.475 21.3082 53.7647 21.9253 53.2874C22.713 52.6793 23.8362 52.5316 24.8969 52.506C25.787 52.4833 26.7026 52.5373 27.5159 52.8583C28.3292 53.1794 29.0231 53.813 29.1425 54.5745" fill="#263238"/>
<path d="M32.2167 61.4984C32.3646 60.7369 32.484 60.0153 32.5096 59.5322C32.5978 58.015 32.157 52.4149 26.9218 52.8667L26.7114 54.4606C26.7114 54.4606 25.9009 59.913 29.2877 59.9556C29.2877 59.9556 29.4754 61.5808 31.0082 63.1605C31.011 63.1577 31.8982 63.1321 32.2167 61.4984Z" fill="#263238"/>
<path d="M29.2905 59.9526C29.6062 59.8958 29.9389 59.9072 30.2375 60.0237C30.5361 60.1402 30.7977 60.3646 30.9228 60.6601C31.0479 60.9556 31.0337 61.2994 30.92 61.6006C30.8062 61.9017 30.6072 62.1631 30.374 62.3848C30.209 62.5439 30.0185 62.6916 29.7996 62.757C29.5777 62.8223 29.319 62.7996 29.1455 62.649" fill="#FFBE9D"/>
<path d="M29.441 61.8623C29.404 61.8737 29.5405 62.0641 29.8277 61.9902C29.9671 61.9561 30.1036 61.8339 30.186 61.6834C30.2714 61.5299 30.3254 61.3623 30.3481 61.1634C30.3709 60.9674 30.3282 60.7571 30.2202 60.6094C30.1178 60.4559 29.95 60.365 29.8107 60.3593C29.5149 60.348 29.4211 60.5525 29.4552 60.5582C29.478 60.5838 29.5946 60.4787 29.7879 60.527C29.9728 60.5639 30.1519 60.8196 30.1093 61.1378C30.0694 61.4617 29.9415 61.7544 29.768 61.8283C29.5889 61.9192 29.4609 61.8339 29.441 61.8623Z" fill="#EB996E"/>
<path d="M29.8587 54.0491C30.2597 54.2764 30.7517 54.3417 31.1953 54.2252C31.6417 54.1087 32.037 53.8104 32.273 53.4155C32.4266 53.1598 32.5119 52.8501 32.438 52.5631C32.3356 52.1682 31.9517 51.9039 31.5593 51.8016C30.9877 51.6539 30.3393 51.796 29.9071 52.1966C29.4748 52.6 29.29 53.2564 29.4805 53.8161C29.6711 54.373 30.2483 54.785 30.8398 54.7537" fill="#263238"/>
<path d="M30.3365 62.5303C30.0465 62.7405 29.7507 62.9536 29.5232 63.2321C29.2957 63.5105 29.1393 63.8628 29.1706 64.2208C29.1905 64.4197 29.2645 64.6186 29.236 64.8175C29.1962 65.0902 28.9716 65.292 28.8237 65.5278C28.4398 66.1301 28.6047 66.9768 29.091 67.5025C29.5744 68.0281 30.3109 68.2639 31.0247 68.2895C31.4399 68.3037 31.875 68.244 32.2134 68.0082C32.7025 67.6644 32.8902 67.0251 32.9044 66.4256" fill="#263238"/>
<path d="M30.6917 55.2223C30.7059 55.2308 30.6035 55.4439 30.3846 55.7593C30.1656 56.0718 29.8215 56.4809 29.3751 56.8617C28.9286 57.2424 28.4765 57.5237 28.1324 57.6913C27.7883 57.8618 27.5608 57.9328 27.5551 57.9158C27.5324 57.8732 28.4082 57.5038 29.2784 56.748C30.1571 56.0036 30.6547 55.1967 30.6917 55.2223Z" fill="#455A64"/>
<path d="M31.2348 55.194C31.2519 55.1968 31.2405 55.4753 31.1382 55.91C31.0358 56.3475 30.8254 56.9385 30.4727 57.5266C30.1173 58.1148 29.6936 58.5779 29.3552 58.8706C29.0168 59.166 28.7751 59.3053 28.7665 59.2911C28.7324 59.2541 29.6566 58.612 30.3476 57.4499C31.0529 56.2964 31.1865 55.1798 31.2348 55.194Z" fill="#455A64"/>
<path d="M19.8687 57.5635C19.9113 57.5606 19.9682 58.0522 20.1388 58.6346C20.3037 59.2171 20.5199 59.6632 20.4829 59.6831C20.4516 59.703 20.1701 59.2768 19.9966 58.6744C19.8203 58.0749 19.8317 57.5635 19.8687 57.5635Z" fill="#455A64"/>
<path d="M32.4096 67.613C32.4181 67.5959 32.5404 67.7465 32.8418 67.7522C32.9868 67.7522 33.1717 67.7124 33.3423 67.5931C33.5129 67.4794 33.6522 67.272 33.7205 67.0191C33.7887 66.7663 33.7916 66.4679 33.7262 66.1639C33.6636 65.8542 33.5442 65.536 33.439 65.1894C33.3366 64.8427 33.2456 64.4535 33.3138 64.0443C33.3792 63.6267 33.6494 63.2914 33.7802 62.9164C33.9139 62.5442 33.8598 62.1293 33.6949 61.7941C33.5271 61.456 33.2428 61.2088 32.9157 61.0838C32.7536 61.0156 32.583 60.9559 32.4266 60.8707C32.2702 60.7883 32.1252 60.6718 32.037 60.5212C31.855 60.2229 31.8607 59.8961 31.8607 59.6262C31.8664 59.3506 31.8806 59.1091 31.8323 58.9045C31.7868 58.6971 31.71 58.5295 31.619 58.4158C31.4285 58.1828 31.2266 58.197 31.2351 58.18C31.2351 58.1772 31.2778 58.1715 31.3602 58.1885C31.4399 58.2056 31.5565 58.2595 31.6645 58.3789C31.7697 58.4954 31.8607 58.6715 31.9148 58.8875C31.9745 59.1034 31.9659 59.362 31.9688 59.629C31.9745 59.8961 31.9802 60.203 32.1423 60.4558C32.3015 60.7172 32.6314 60.8252 32.9698 60.9587C33.3167 61.0866 33.6466 61.365 33.8257 61.7316C34.0077 62.0952 34.0703 62.5498 33.9195 62.9675C33.7717 63.3738 33.5129 63.7005 33.456 64.0699C33.3935 64.4393 33.4731 64.8115 33.5698 65.1524C33.6693 65.4934 33.7859 65.8201 33.8456 66.1412C33.9082 66.4622 33.9025 66.7776 33.82 67.0504C33.7404 67.3203 33.5811 67.5419 33.3849 67.6641C33.1916 67.7863 32.9925 67.8204 32.8361 67.8118C32.6769 67.8033 32.5631 67.7465 32.4949 67.701C32.4323 67.6527 32.4096 67.613 32.4096 67.613Z" fill="#455A64"/>
<path d="M30.3566 67.414C30.3708 67.4055 30.3936 67.505 30.5329 67.5675C30.658 67.6271 30.9339 67.63 31.0846 67.4169C31.2381 67.2009 31.2154 66.8401 31.0391 66.5276C30.877 66.2065 30.5557 65.8911 30.4732 65.4223C30.4305 65.195 30.4846 64.9365 30.6324 64.766C30.7718 64.5955 30.9339 64.479 31.0419 64.3398C31.2552 64.0557 31.2751 63.7005 31.241 63.4334C31.204 63.1578 31.1244 62.939 31.0789 62.7885C31.0277 62.6379 31.0021 62.5526 31.0135 62.547C31.022 62.5441 31.0647 62.6208 31.1329 62.7657C31.1983 62.9106 31.2922 63.1266 31.3462 63.4164C31.3945 63.6977 31.3945 64.0869 31.1528 64.4222C31.0306 64.5841 30.8656 64.7063 30.749 64.8541C30.6267 64.999 30.5869 65.195 30.6239 65.3967C30.6922 65.8059 30.9936 66.1156 31.1642 66.4622C31.349 66.8032 31.3718 67.2208 31.1727 67.4765C31.0761 67.6072 30.931 67.6612 30.8116 67.6726C30.6893 67.684 30.5841 67.6584 30.5102 67.6158C30.3537 67.5277 30.3537 67.4112 30.3566 67.414Z" fill="#455A64"/>
<path d="M19.2122 66.6727C19.2037 66.6783 19.1212 66.5988 18.9819 66.4425C18.8454 66.2834 18.6378 66.0504 18.4871 65.6953C18.4103 65.5191 18.362 65.306 18.3676 65.0759C18.3733 64.8486 18.4416 64.59 18.6179 64.3883C18.7942 64.1837 19.0501 64.0786 19.2037 63.8882C19.3629 63.6979 19.3828 63.4223 19.3203 63.158C19.2577 62.8881 19.1354 62.6466 19.0075 62.4079C18.8852 62.1664 18.7714 61.9221 18.7316 61.6635C18.6861 61.4078 18.743 61.1379 18.8795 60.9475C19.0103 60.7543 19.1752 60.6208 19.3117 60.4958C19.599 60.2599 19.761 60.0042 19.798 59.8025C19.8378 59.6036 19.7696 59.4928 19.7866 59.49C19.7895 59.4871 19.8094 59.5127 19.8293 59.5638C19.8492 59.615 19.8691 59.7031 19.8549 59.811C19.835 60.0298 19.6672 60.3224 19.3828 60.5725C19.2492 60.7032 19.0928 60.8367 18.9819 61.0129C18.8681 61.1862 18.8255 61.4106 18.8681 61.6408C18.9079 61.8738 19.016 62.1068 19.1383 62.3426C19.2634 62.5756 19.3999 62.837 19.4653 63.1268C19.5335 63.4109 19.5136 63.749 19.3146 63.982C19.1212 64.2093 18.8681 64.3087 18.7174 64.482C18.5639 64.6525 18.4956 64.877 18.4871 65.0844C18.4757 65.2947 18.5155 65.4907 18.5809 65.6612C18.7117 66.0021 18.9023 66.2436 19.0245 66.4113C19.1497 66.5732 19.2179 66.6641 19.2122 66.6727Z" fill="#455A64"/>
<path d="M31.0702 54.4209C31.0304 54.4408 30.8313 54.0061 30.3763 53.668C29.927 53.3213 29.455 53.2503 29.4635 53.2048C29.4578 53.1679 29.9782 53.1764 30.4673 53.5486C30.9593 53.918 31.1071 54.4152 31.0702 54.4209Z" fill="#E8505B"/>
<path d="M31.4798 51.6992C31.494 51.6907 31.5907 51.8015 31.6675 52.0202C31.7442 52.239 31.7897 52.5715 31.6931 52.9209C31.5964 53.2704 31.3859 53.5346 31.2096 53.6824C31.0305 53.833 30.8911 53.8784 30.8826 53.8642C30.8712 53.8443 30.9878 53.7676 31.1357 53.6085C31.2864 53.4522 31.4627 53.1994 31.5509 52.884C31.639 52.5686 31.6163 52.2618 31.5679 52.0515C31.5196 51.8384 31.4599 51.7106 31.4798 51.6992Z" fill="#455A64"/>
<path opacity="0.3" d="M17.0396 86.6524C17.0396 86.6524 24.1032 93.3549 28.3033 92.1417C32.5035 90.9285 33.7461 87.7804 33.7461 87.7804L33.8485 86.6524L33.4277 86.3768L17.2585 85.0698L17.0396 86.6524Z" fill="black"/>
<path d="M12.8594 80.3732L14.2215 76.8813L19.1041 79.9471L14.7533 86.6524C14.7561 86.6524 12.9845 84.3567 12.8594 80.3732Z" fill="#EB996E"/>
<path d="M18.3705 70.727C20.6426 69.5422 23.5858 69.1984 23.5858 69.1984C24.4389 70.906 27.1319 71.1219 28.7613 69.957L30.1348 69.0279C30.1348 69.0279 30.3481 69.0194 30.7092 69.0506C33.9226 69.3348 36.5558 71.7328 37.2099 74.8923C37.4487 76.043 37.625 77.3613 37.5539 78.583C37.3748 81.6857 34.1586 81.967 34.1586 81.967C34.1586 81.967 33.9937 85.0355 33.7747 87.5131C33.6126 89.3656 32.6515 90.7464 30.9623 91.5221C29.7026 92.0989 29.0087 92.366 27.3764 92.6274C23.2559 93.2865 19.2976 91.7238 16.6899 88.9309C17.179 85.9731 17.6454 82.146 17.6113 81.9755C17.6056 81.9386 17.6169 81.9187 17.6169 81.9187L14.4292 79.0916L12.6206 77.5744C12.6206 77.5772 16.5875 71.6959 18.3705 70.727Z" fill="#007AFF"/>
<path d="M22.3233 72.6415C22.312 72.67 22.0503 72.4228 21.5356 72.4228C21.2854 72.4228 20.9754 72.4966 20.7223 72.7041C20.5972 72.8063 20.4892 72.9484 20.3612 73.0933C20.2361 73.2325 20.074 73.3945 19.8465 73.4343C19.6162 73.4769 19.4057 73.3774 19.2465 73.2723C19.0815 73.1672 18.9422 73.0535 18.8 72.9711C18.5185 72.7978 18.2 72.8149 17.9668 72.8973C17.728 72.9797 17.5716 73.1217 17.4834 73.2325C17.3952 73.3433 17.3611 73.4172 17.3497 73.4144C17.3441 73.4115 17.3583 73.3291 17.4379 73.1984C17.5175 73.0734 17.6768 72.9058 17.9327 72.8007C18.1801 72.6955 18.5469 72.6643 18.8711 72.8518C19.0304 72.9399 19.1725 73.0535 19.3289 73.1501C19.4825 73.2467 19.6531 73.3206 19.8266 73.2894C20.0001 73.2581 20.1394 73.1303 20.2617 72.9967C20.3868 72.8603 20.5005 72.7126 20.6456 72.5989C20.9356 72.3716 21.2769 72.3063 21.547 72.3176C21.82 72.329 22.0276 72.4142 22.1556 72.491C22.2721 72.5705 22.3262 72.6359 22.3233 72.6415Z" fill="#FAFAFA"/>
<path d="M25.5618 76.8808C25.5419 76.9036 25.3741 76.5882 24.885 76.4234C24.649 76.3438 24.3333 76.3154 24.0233 76.4319C23.8698 76.4887 23.7219 76.5882 23.557 76.6848C23.3949 76.7785 23.1901 76.878 22.9598 76.8439C22.7295 76.8126 22.5589 76.6478 22.4423 76.5001C22.32 76.3495 22.2233 76.1961 22.1152 76.0711C21.9048 75.8182 21.5948 75.7301 21.3474 75.7358C21.0944 75.7386 20.901 75.8239 20.7816 75.8978C20.6621 75.9745 20.6052 76.0341 20.5967 76.0256C20.591 76.0228 20.6308 75.9461 20.7474 75.8495C20.864 75.7557 21.0688 75.6477 21.3418 75.6307C21.6091 75.6108 21.9674 75.696 22.2148 75.9802C22.337 76.1137 22.4366 76.2671 22.5532 76.4092C22.6669 76.5484 22.8063 76.6763 22.9797 76.699C23.1532 76.7246 23.3266 76.6478 23.4859 76.5598C23.648 76.4717 23.8015 76.3666 23.9778 76.3069C24.3276 76.1847 24.6689 76.2302 24.9191 76.3296C25.1722 76.4291 25.3457 76.574 25.4395 76.6876C25.539 76.8013 25.5675 76.878 25.5618 76.8808Z" fill="#FAFAFA"/>
<path d="M32.7594 70.6699C32.7537 70.7011 32.4466 70.5136 31.9432 70.6244C31.6987 70.6784 31.4115 70.8148 31.2096 71.0705C31.1072 71.1955 31.0333 71.3603 30.9394 71.5279C30.8484 71.6899 30.7233 71.8831 30.5072 71.9712C30.2911 72.0621 30.0636 72.0081 29.8873 71.9399C29.7053 71.8717 29.5432 71.7893 29.3868 71.741C29.0768 71.6331 28.7668 71.7154 28.5564 71.8461C28.3431 71.9768 28.218 72.1502 28.1526 72.2752C28.0901 72.403 28.073 72.4826 28.0588 72.4797C28.0531 72.4797 28.0474 72.3945 28.0986 72.2524C28.1498 72.1132 28.2692 71.9143 28.4967 71.7581C28.7157 71.6046 29.0683 71.4938 29.4237 71.6103C29.5972 71.6615 29.7621 71.7439 29.9328 71.8035C30.1034 71.866 30.2854 71.903 30.4475 71.8319C30.6095 71.7666 30.7205 71.6103 30.8114 71.4541C30.9053 71.2949 30.9849 71.1273 31.1015 70.9852C31.3375 70.7011 31.656 70.5647 31.9205 70.5221C32.1878 70.4767 32.4124 70.5136 32.5518 70.5619C32.6968 70.613 32.7622 70.6642 32.7594 70.6699Z" fill="#FAFAFA"/>
<path d="M29.4379 75.3324C29.418 75.3523 29.2957 75.1051 28.926 74.9659C28.7469 74.8977 28.508 74.8664 28.272 74.946C28.1554 74.9829 28.0388 75.0568 27.9052 75.125C27.7743 75.1903 27.6123 75.2642 27.4274 75.2301C27.2426 75.196 27.1175 75.0596 27.0293 74.9403C26.9411 74.8181 26.8729 74.6959 26.7933 74.5993C26.6426 74.4004 26.4151 74.3237 26.2245 74.3152C25.8293 74.3038 25.6473 74.5255 25.6359 74.4999C25.6302 74.4942 25.6615 74.4374 25.7553 74.3635C25.8492 74.2925 26.0113 74.2129 26.2245 74.2101C26.435 74.2016 26.7137 74.2811 26.8956 74.5113C26.9866 74.6192 27.0577 74.7414 27.143 74.8522C27.2255 74.963 27.325 75.0596 27.453 75.0823C27.7146 75.1278 27.9535 74.892 28.2265 74.8153C28.5052 74.7329 28.7696 74.784 28.9602 74.8693C29.3611 75.0511 29.4521 75.3352 29.4379 75.3324Z" fill="#FAFAFA"/>
<path d="M22.1156 79.2591C22.0957 79.279 21.9734 79.0318 21.6038 78.8926C21.4246 78.8244 21.1857 78.7932 20.9497 78.8727C20.8331 78.9097 20.7165 78.9835 20.5829 79.0517C20.4521 79.1171 20.29 79.1909 20.1051 79.1568C19.9203 79.1228 19.7952 78.9864 19.707 78.867C19.6189 78.7449 19.5506 78.6227 19.471 78.5261C19.3203 78.3272 19.0928 78.2505 18.9023 78.242C18.507 78.2306 18.325 78.4522 18.3136 78.4266C18.3079 78.421 18.3392 78.3641 18.4331 78.2903C18.5269 78.2192 18.689 78.1397 18.9023 78.1368C19.1127 78.1283 19.3914 78.2079 19.5734 78.438C19.6644 78.546 19.7355 78.6682 19.8208 78.779C19.9032 78.8898 20.0028 78.9864 20.1307 79.0091C20.3924 79.0546 20.6312 78.8187 20.9042 78.742C21.1829 78.6596 21.4474 78.7108 21.6379 78.796C22.0388 78.9778 22.1298 79.262 22.1156 79.2591Z" fill="#FAFAFA"/>
<path d="M28.9602 79.3474C28.946 79.373 28.7526 79.1798 28.3573 79.1656C28.1668 79.1599 27.9308 79.2082 27.7317 79.3588C27.6322 79.4327 27.5469 79.5378 27.4417 79.6458C27.3393 79.7509 27.2085 79.8731 27.0237 79.8986C26.8388 79.9242 26.6739 79.839 26.5545 79.7537C26.4293 79.6657 26.327 79.5747 26.2189 79.5065C26.0113 79.3673 25.7696 79.3673 25.5905 79.4213C25.2151 79.5378 25.1127 79.8077 25.0928 79.7878C25.0843 79.785 25.0957 79.7196 25.1611 79.6202C25.2265 79.5236 25.3544 79.3957 25.5563 79.3218C25.7525 79.2451 26.0426 79.2309 26.29 79.39C26.4123 79.4639 26.5203 79.5548 26.6341 79.6344C26.7478 79.7139 26.8729 79.7736 27.0009 79.7537C27.2625 79.7111 27.4132 79.4128 27.6464 79.2508C27.8825 79.0832 28.1498 79.0434 28.3602 79.0633C28.7981 79.1087 28.9773 79.3474 28.9602 79.3474Z" fill="#FAFAFA"/>
<path d="M26.6995 82.4695C26.6852 82.4951 26.4919 82.3018 26.0966 82.2876C25.9061 82.282 25.67 82.3303 25.471 82.4808C25.3715 82.5547 25.2862 82.6598 25.1809 82.7678C25.0786 82.8729 24.9478 82.9951 24.7629 83.0207C24.5781 83.0462 24.4131 82.961 24.2937 82.8758C24.1686 82.7877 24.0662 82.6968 23.9582 82.6286C23.7506 82.4894 23.5089 82.4894 23.3297 82.5433C22.9543 82.6598 22.852 82.9298 22.8321 82.9099C22.8235 82.907 22.8349 82.8417 22.9003 82.7422C22.9657 82.6456 23.0937 82.5178 23.2956 82.4439C23.4918 82.3672 23.7819 82.353 24.0292 82.5121C24.1515 82.586 24.2596 82.6769 24.3733 82.7564C24.4871 82.836 24.6122 82.8957 24.7402 82.8758C25.0018 82.836 25.1525 82.5348 25.3857 82.3729C25.6217 82.2052 25.889 82.1655 26.0994 82.1854C26.5374 82.228 26.7137 82.4666 26.6995 82.4695Z" fill="#FAFAFA"/>
<path d="M21.9221 90.2146C21.9022 90.2345 21.7771 89.9902 21.4074 89.8566C21.2282 89.7913 20.9894 89.7629 20.7533 89.8453C20.6368 89.885 20.5202 89.9589 20.3894 90.03C20.2614 90.0981 20.0965 90.172 19.9145 90.1408C19.7296 90.1095 19.6017 89.9731 19.5135 89.8566C19.4225 89.7345 19.3514 89.6151 19.2718 89.5185C19.1182 89.3225 18.8879 89.2486 18.7002 89.2429C18.3049 89.2372 18.1286 89.4617 18.1144 89.4361C18.1087 89.4304 18.14 89.3736 18.231 89.2997C18.322 89.2287 18.4841 89.1463 18.7002 89.1378C18.9078 89.1264 19.1893 89.2032 19.377 89.4305C19.4708 89.5384 19.5448 89.6578 19.6301 89.7686C19.7154 89.8794 19.8149 89.9731 19.9429 89.9959C20.2045 90.0385 20.4405 89.7998 20.7135 89.7174C20.9894 89.6293 21.2567 89.6776 21.45 89.76C21.8425 89.9334 21.9392 90.2175 21.9221 90.2146Z" fill="#FAFAFA"/>
<path d="M27.5131 91.8628C27.4989 91.8884 27.3084 91.6924 26.9131 91.6725C26.7226 91.664 26.4837 91.7066 26.2846 91.8572C26.1851 91.9282 26.097 92.0333 25.9917 92.1413C25.8894 92.2436 25.7557 92.3629 25.5709 92.3885C25.386 92.4141 25.2211 92.3231 25.1045 92.2351C24.9822 92.147 24.8799 92.0532 24.7746 91.9822C24.5699 91.8401 24.3282 91.8373 24.1462 91.8884C23.768 91.9992 23.6656 92.2692 23.6429 92.2464C23.6343 92.2436 23.6486 92.1782 23.714 92.0816C23.7794 91.985 23.9102 91.86 24.1121 91.789C24.3083 91.7151 24.5983 91.7066 24.8457 91.8657C24.9652 91.9396 25.0732 92.0333 25.187 92.1129C25.3007 92.1924 25.4258 92.2549 25.5538 92.2379C25.8154 92.201 25.9718 91.9026 26.2079 91.7435C26.4467 91.5787 26.714 91.5446 26.9216 91.5674C27.3539 91.6185 27.5273 91.86 27.5131 91.8628Z" fill="#FAFAFA"/>
<path d="M9.09713 68.3657C9.27059 68.5703 15.521 76.9207 15.521 76.9207L14.6394 77.418L8.22412 69.1726L9.09713 68.3657Z" fill="#263238"/>
<path d="M33.4985 74.3236C33.4985 74.3236 27.6349 84.427 27.2368 84.6146C26.4548 84.9811 17.4574 77.2103 16.5986 76.4687C16.4791 76.3096 16.2374 75.9772 15.7569 75.3152C15.7569 75.3152 15.0459 72.0704 14.2895 72.3176C13.5331 72.5677 14.7047 73.9684 14.2099 75.2015C13.7151 76.4346 11.4572 73.4939 11.3662 73.2297L10.7833 72.4682C10.7833 72.4682 10.1719 74.1985 10.2145 74.9231C10.3482 77.2387 12.5407 79.9919 12.5407 79.9919C12.5407 79.9919 21.4499 91.1466 28.1979 91.5273C30.1402 91.6353 33.8512 86.0466 36.1602 81.9182C37.5536 79.4236 36.9081 76.8892 34.5962 75.2072L33.4985 74.3236Z" fill="#FFBE9D"/>
<path d="M11.3265 75.3326C11.3066 75.3439 11.0592 74.9916 10.826 74.5143C10.59 74.0398 10.4563 73.6278 10.4791 73.6193C10.5018 73.6108 10.6724 74.0029 10.9056 74.4745C11.136 74.949 11.3464 75.3184 11.3265 75.3326Z" fill="#EB996E"/>
<path d="M33.2231 71.5137C32.9927 71.6529 27.5386 81.7677 27.5386 81.7677L34.5568 87.2627C34.5568 87.2627 36.3824 82.7679 37.3464 79.114C37.608 78.1224 37.4744 75.4715 37.1047 74.4487C36.5815 72.9968 35.7909 73.3576 34.6051 72.5081L33.2231 71.5137Z" fill="#007AFF"/>
<g opacity="0.7">
<path opacity="0.7" d="M35.529 71.5141C35.5261 71.5198 35.4607 71.4743 35.3299 71.4089C35.202 71.3436 34.9887 71.264 34.7129 71.2782C34.437 71.2868 34.11 71.4232 33.7972 71.659C33.4815 71.8976 33.1744 72.2357 32.8844 72.642C32.5886 73.0455 32.3441 73.5399 32.0426 74.0513C31.7497 74.5684 31.4341 75.1168 31.1042 75.6964C30.4417 76.8556 29.7108 78.1257 28.9459 79.4611C28.4795 80.2708 28.0274 81.0578 27.6008 81.7994L27.5838 81.7113C29.4862 83.2115 31.1412 84.5185 32.3327 85.4618C32.91 85.9249 33.3763 86.2999 33.7119 86.567C33.8626 86.692 33.9849 86.7915 34.0759 86.8682C34.1583 86.9364 34.201 86.9762 34.1982 86.979C34.1953 86.9818 34.1498 86.9506 34.0617 86.8881C33.965 86.817 33.8398 86.7233 33.6806 86.6068C33.3394 86.3482 32.8645 85.9846 32.2758 85.5356C31.0758 84.6037 29.4094 83.3109 27.4956 81.8278L27.4473 81.7909L27.4785 81.7369C27.9023 80.9953 28.3544 80.2083 28.8208 79.3985C29.5886 78.066 30.3194 76.796 30.9876 75.6396C31.3204 75.0628 31.6388 74.5144 31.9374 74.0002C32.2389 73.4916 32.4948 72.9944 32.8019 72.5881C33.1033 72.1789 33.4218 71.838 33.7517 71.5993C34.0787 71.3606 34.4228 71.2271 34.7157 71.2271C35.0058 71.2186 35.2219 71.3123 35.3498 71.3891C35.4181 71.4231 35.4607 71.4629 35.492 71.4828C35.5148 71.4999 35.5318 71.5112 35.529 71.5141Z" fill="black"/>
</g>
<path d="M33.433 80.9979C33.4131 81.0178 33.2908 80.7706 32.9211 80.6314C32.742 80.5632 32.5031 80.5319 32.2671 80.6115C32.1505 80.6484 32.0339 80.7223 31.9003 80.7905C31.7695 80.8558 31.6074 80.9297 31.4225 80.8956C31.2377 80.8615 31.1126 80.7251 31.0244 80.6058C30.9363 80.4836 30.868 80.3615 30.7884 80.2649C30.6377 80.066 30.4102 79.9893 30.2197 79.9807C29.8272 79.9694 29.6424 80.191 29.631 80.1654C29.6253 80.1597 29.6566 80.1029 29.7505 80.029C29.8443 79.958 30.0064 79.8785 30.2197 79.8756C30.4301 79.8671 30.7088 79.9466 30.8908 80.1768C30.9818 80.2848 31.0529 80.4069 31.1382 80.5177C31.2206 80.6285 31.3202 80.7251 31.4481 80.7479C31.7097 80.7933 31.9486 80.5575 32.2216 80.4808C32.5003 80.3984 32.7647 80.4495 32.9553 80.5348C33.3562 80.7166 33.4472 81.0007 33.433 80.9979Z" fill="#FAFAFA"/>
<path d="M36.6407 79.6881C36.6151 79.7023 36.5639 79.4324 36.2483 79.1994C36.0947 79.0858 35.8729 78.992 35.6226 79.0034C35.5004 79.0091 35.3667 79.046 35.2217 79.0772C35.0795 79.1057 34.9004 79.1312 34.7326 79.0488C34.5648 78.9664 34.4795 78.8016 34.4283 78.6624C34.3743 78.5204 34.343 78.384 34.2918 78.2703C34.2008 78.0374 34.0018 77.901 33.8226 77.8441C33.4472 77.7277 33.2112 77.8924 33.2055 77.864C33.1998 77.8583 33.2482 77.8101 33.3562 77.7646C33.4643 77.722 33.6406 77.6907 33.851 77.7419C34.0558 77.7902 34.3032 77.9436 34.4169 78.2135C34.4766 78.3414 34.5108 78.4806 34.562 78.6084C34.6103 78.7391 34.6814 78.8585 34.798 78.9153C35.0369 79.0289 35.3326 78.867 35.617 78.867C35.907 78.8613 36.1487 78.9835 36.3108 79.117C36.6435 79.3983 36.6549 79.6966 36.6407 79.6881Z" fill="#FAFAFA"/>
<path d="M36.8062 75.5084C36.7806 75.5227 36.7294 75.2527 36.4138 75.0197C36.2602 74.9061 36.0384 74.8123 35.7882 74.8237C35.6659 74.8294 35.5323 74.8663 35.3872 74.8976C35.245 74.926 35.0659 74.9516 34.8981 74.8692C34.7303 74.7868 34.645 74.622 34.5938 74.4827C34.5398 74.3407 34.5085 74.2043 34.4573 74.0906C34.3663 73.8577 34.1673 73.7213 33.9881 73.6645C33.6128 73.548 33.3767 73.7128 33.3711 73.6843C33.3654 73.6787 33.4137 73.6304 33.5218 73.5849C33.6298 73.5423 33.8061 73.511 34.0166 73.5622C34.2213 73.6105 34.4687 73.7639 34.5825 74.0338C34.6422 74.1617 34.6763 74.3009 34.7275 74.4288C34.7758 74.5595 34.8469 74.6788 34.9635 74.7356C35.2024 74.8493 35.4981 74.6873 35.7825 74.6873C36.0726 74.6816 36.3143 74.8038 36.4764 74.9373C36.8091 75.2186 36.8204 75.5141 36.8062 75.5084Z" fill="#FAFAFA"/>
<path d="M35.2535 85.1202C35.2279 85.1344 35.1767 84.8645 34.8611 84.6315C34.7075 84.5179 34.4857 84.4241 34.2354 84.4355C34.1132 84.4412 33.9795 84.4781 33.8345 84.5094C33.6923 84.5378 33.5132 84.5633 33.3454 84.481C33.1776 84.3986 33.0923 84.2338 33.0411 84.0945C32.9871 83.9525 32.9558 83.8161 32.9046 83.7025C32.8136 83.4695 32.6145 83.3331 32.4354 83.2763C32.06 83.1598 31.824 83.3246 31.8183 83.2962C31.8126 83.2905 31.861 83.2422 31.969 83.1967C32.0771 83.1541 32.2534 83.1228 32.4638 83.174C32.6686 83.2223 32.916 83.3757 33.0297 83.6456C33.0894 83.7735 33.1236 83.9127 33.1748 84.0406C33.2231 84.1713 33.2942 84.2906 33.4108 84.3474C33.6496 84.4611 33.9454 84.2991 34.2298 84.2991C34.5198 84.2934 34.7615 84.4156 34.9236 84.5491C35.2563 84.8304 35.2677 85.1259 35.2535 85.1202Z" fill="#FAFAFA"/>
</g>
<defs>
<clipPath id="clip0">
<rect width="111" height="118" fill="white"/>
</clipPath>
</defs>
</svg>
