<svg width="165" height="103" viewBox="0 0 165 103" fill="none" xmlns="http://www.w3.org/2000/svg">
<path d="M164.502 88.8996L2.51904 87.4834V91.6743C2.51904 92.8118 3.22572 93.7787 4.18236 93.9511L49.986 102.203C50.5296 102.301 51.0806 102.327 51.6294 102.281L162.741 92.8717C163.733 92.7875 164.502 91.8178 164.502 90.6491V88.8996Z" fill="#5D6372"/>
<path d="M105.719 82.1066L4.19407 89.7729C2.37738 89.9102 0.900391 88.4522 0.900391 86.5167V8.96623C0.900391 7.03074 2.37738 5.46143 4.19407 5.46143H105.719C107.216 5.46143 108.426 6.87985 108.426 8.63V78.7346C108.426 80.4836 107.215 81.9936 105.719 82.1066Z" fill="#5D6372"/>
<path d="M107.337 82.1066L5.81272 89.7729C3.99603 89.9102 2.51904 88.4522 2.51904 86.5167V8.96623C2.51904 7.03073 3.99603 5.46143 5.81272 5.46143H107.337C108.834 5.46143 110.044 6.87985 110.044 8.63V78.7346C110.044 80.4836 108.834 81.9936 107.337 82.1066Z" fill="#1E2538"/>
<path d="M104.175 77.1638L9.61514 83.823C8.13645 83.927 6.93555 82.7307 6.93555 81.1506V13.2546C6.93555 11.6745 8.13702 10.3878 9.61514 10.3816L104.175 9.9634C105.409 9.95775 106.408 11.1202 106.408 12.5595V74.4004C106.408 75.8397 105.409 77.0768 104.175 77.1638Z" fill="#D0EAF4"/>
<path d="M60.1604 7.5821C60.1604 8.30261 59.6378 8.88863 58.9925 8.89032C58.3466 8.89258 57.8223 8.30882 57.8223 7.58662C57.8223 6.86441 58.3466 6.2784 58.9925 6.27783C59.6378 6.27783 60.1604 6.86159 60.1604 7.5821Z" fill="white"/>
<path d="M111.384 81.7588L2.51904 89.8281L49.986 98.3799C50.5296 98.4777 51.0806 98.5037 51.6294 98.4574L164.501 88.8996L113.116 81.8137C112.541 81.7345 111.961 81.7159 111.384 81.7588Z" fill="#1E2538"/>
<path opacity="0.3" d="M18.4038 90.0309L109.037 83.2129L137.088 87.05L47.2351 94.3382L18.4038 90.0309Z" fill="url(#paint0_linear)"/>
<path opacity="0.5" d="M22.4114 67.8217L16.3183 68.1111C14.8606 68.18 13.708 69.3809 13.708 70.7936V75.9084C13.708 78.0129 15.6048 78.8854 17.0619 78.7939L22.4273 77.918C23.8521 77.8292 24.9916 76.6312 24.9916 75.2427L25.9153 70.2574C25.9153 68.87 23.8362 67.7545 22.4114 67.8217Z" fill="#60B158"/>
<path opacity="0.5" d="M98.8172 64.2121L30.8895 67.4327C29.4943 67.4988 28.6172 68.672 28.6172 70.0537V75.0588C28.6172 77.1543 30.0777 77.8714 31.3672 77.9014C31.453 77.9047 31.486 77.9522 31.5734 77.9471L72.4462 74.8017C72.4701 74.8 72.4632 74.7961 72.4871 74.7938L98.8212 73.1482C99.9369 73.0787 100.824 72.0253 100.824 70.7962L101.834 66.3019C101.835 65.0722 99.9329 64.1596 98.8172 64.2121Z" fill="#FF6961"/>
<path d="M23.5603 68.3683L17.4041 68.6582C15.947 68.7271 14.729 69.928 14.729 71.3403V76.4546C14.729 77.8669 15.931 78.9378 17.3882 78.8462L23.5518 78.4631C24.9759 78.3738 26.166 77.1763 26.166 75.7878V70.7599C26.1666 69.3714 24.9844 68.3005 23.5603 68.3683Z" fill="#60B158"/>
<path d="M101.936 66.8836V71.3355C101.936 72.5646 101.025 73.6174 99.91 73.6875L31.8574 77.9506C30.4622 78.0376 29.4346 76.9882 29.4346 75.6066V70.602C29.4346 69.2203 30.4582 68.046 31.8534 67.9799L99.9668 64.7531C101.082 64.7 101.936 65.6544 101.936 66.8836Z" fill="#F4F7FA"/>
<path d="M76.062 68.1283V72.8272C76.062 74.1247 75.0798 75.2396 73.8493 75.3165L31.8722 77.9499C30.4629 78.038 29.4341 76.9779 29.4341 75.5821V70.5266C29.4341 69.1308 30.4685 67.9446 31.8774 67.8779L73.9056 65.8848C75.1366 65.826 76.062 66.8308 76.062 68.1283Z" fill="#FF6961"/>
<path d="M23.1176 73.154L19.787 71.1931C19.6285 71.0999 19.332 71.1004 19.1729 71.1942C19.0138 71.2881 18.8145 71.4621 18.8145 71.6492V75.6659C18.8145 75.8535 19.0138 76.0241 19.1729 76.1134C19.332 76.2027 19.5779 76.1976 19.7359 76.0999L23.092 74.044C23.2448 73.9497 23.3516 73.779 23.3516 73.5953C23.3516 73.4117 23.2704 73.2439 23.1176 73.154Z" fill="#F4F7FA"/>
<path d="M32.3447 20.8467V58.0297L86.278 56.279L85.8724 20.9947L32.3447 20.8467ZM38.5895 55.4432L34.0773 55.5794L34.0762 52.0848L38.5856 51.9639L38.5895 55.4432ZM38.5538 26.6667L34.0677 26.6786L34.0666 23.2247L38.5498 23.2275L38.5538 26.6667ZM45.1564 55.2336L41.4617 55.3607L41.4555 51.8904L45.1474 51.7768L45.1564 55.2336ZM45.0832 26.6453L41.4094 26.6594L41.4032 23.2292L45.0741 23.2286L45.0832 26.6453ZM51.933 55.0301L47.8252 55.1471L47.8145 51.7L51.9193 51.596L51.933 55.0301ZM51.8216 26.6272L47.7372 26.6374L47.7264 23.2297L51.808 23.2326L51.8216 26.6272ZM58.7146 54.8335L54.604 54.9465L54.5887 51.5214L58.6964 51.4208L58.7146 54.8335ZM58.5658 26.6102L54.4779 26.6198L54.4626 23.2337L58.5476 23.2365L58.5658 26.6102ZM65.2952 54.6244L61.3874 54.7532L61.3675 51.3496L65.2724 51.2349L65.2952 54.6244ZM65.11 26.5899L61.2238 26.6023L61.2039 23.2371L65.0878 23.2382L65.11 26.5899ZM71.674 54.4283L67.764 54.5526L67.7401 51.171L71.6479 51.0602L71.674 54.4283ZM71.4542 26.5718L67.5652 26.5837L67.5413 23.2399L71.4281 23.2416L71.4542 26.5718ZM78.2631 54.2373L74.5564 54.356L74.528 50.9964L78.2324 50.8913L78.2631 54.2373ZM78.008 26.556L74.3207 26.5662L74.2923 23.2439L77.9768 23.2467L78.008 26.556ZM84.6505 54.0502L80.7353 54.1582L80.703 50.8206L84.6158 50.7246L84.6505 54.0502ZM84.3613 26.539L80.4666 26.5486L80.4343 23.2478L84.3267 23.2501L84.3613 26.539Z" fill="url(#paint1_linear)"/>
<path d="M56.0735 44.7931L56.0127 32.0171C56.0087 31.1993 56.6791 30.6839 57.2619 31.0552L67.5548 37.6128C68.1911 38.018 68.1996 39.1906 67.5684 39.5743L57.3358 45.803C56.7546 46.1562 56.0775 45.6154 56.0735 44.7931Z" fill="url(#paint2_linear)"/>
<path d="M33.3662 20.8589V58.0443L87.258 56.2931L86.8756 21.0069L33.3662 20.8589ZM39.5161 55.4567L35.0034 55.5929L35.0023 52.0982L39.5122 51.9773L39.5161 55.4567ZM39.4804 26.6778L34.9937 26.6897L34.9926 23.2352L39.4764 23.238L39.4804 26.6778ZM46.0842 55.247L42.3894 55.3742L42.3832 51.9033L46.0757 51.7897L46.0842 55.247ZM46.0109 26.6569L42.3372 26.6711L42.3309 23.2403L46.0024 23.2397L46.0109 26.6569ZM52.8618 55.043L48.7535 55.16L48.7428 51.7128L52.8482 51.6089L52.8618 55.043ZM52.7499 26.6388L48.6649 26.649L48.6541 23.2408L52.7363 23.2437L52.7499 26.6388ZM59.644 54.8469L55.5329 54.96L55.5176 51.5348L59.6259 51.4342L59.644 54.8469ZM59.4946 26.6213L55.4062 26.6309L55.3909 23.2448L59.4764 23.2476L59.4946 26.6213ZM66.2251 54.6379L62.3168 54.7667L62.2969 51.363L66.2024 51.2483L66.2251 54.6379ZM66.0394 26.6015L62.1526 26.614L62.1327 23.2487L66.0166 23.2499L66.0394 26.6015ZM72.6046 54.4418L68.694 54.5661L68.6701 51.1845L72.5779 51.0737L72.6046 54.4418ZM72.3847 26.5835L68.4951 26.5953L68.4713 23.2516L72.358 23.2527L72.3847 26.5835ZM79.1948 54.2508L75.4875 54.3694L75.4591 51.0098L79.1641 50.9047L79.1948 54.2508ZM78.9391 26.5676L75.2518 26.5778L75.2234 23.2555L78.9085 23.2583L78.9391 26.5676ZM85.5827 54.0631L81.667 54.1711L81.6346 50.833L85.5481 50.7369L85.5827 54.0631ZM85.2936 26.5507L81.3983 26.5603L81.3659 23.2595L85.2583 23.2617L85.2936 26.5507Z" fill="#007AFF"/>
<path d="M57.0022 44.8054L56.9414 32.0288C56.9374 31.211 57.6078 30.6957 58.1906 31.0669L68.4847 37.6251C69.1209 38.0302 69.1294 39.2028 68.4983 39.5871L58.2645 45.8158C57.6833 46.169 57.0056 45.6276 57.0022 44.8054Z" fill="white"/>
<path d="M117.399 18.1754C117.399 18.1754 117.819 16.61 117.521 16.2099C117.224 15.8098 115.406 14.2094 115.581 14.7316C115.756 15.2532 116.017 15.6013 116.017 15.6013C116.017 15.6013 115.038 16.0534 115.668 16.7321C116.297 17.4102 116.507 17.5667 116.542 18.1759C116.577 18.784 116.979 18.9925 117.399 18.1754Z" fill="white"/>
<path d="M134.866 85.7437C134.866 85.7437 135.088 87.0977 135.06 87.5791C135.031 88.0612 129.657 88.3076 129.602 87.9464C129.548 87.5853 130.491 87.0117 131.154 86.8089C131.818 86.6066 133.76 86.0658 133.76 86.0658L134.866 85.7437Z" fill="url(#paint3_linear)"/>
<path d="M133.561 84.3937L133.732 86.0771C133.732 86.0771 134.356 86.4874 134.906 86.1709L135.182 84.3389L133.561 84.3937Z" fill="white"/>
<path d="M144.455 87.9385C144.455 87.9385 144.677 89.2925 144.649 89.7739C144.621 90.2559 139.246 90.5018 139.192 90.1412C139.137 89.7801 140.08 89.2066 140.744 89.0037C141.407 88.8014 143.349 88.2606 143.349 88.2606L144.455 87.9385Z" fill="url(#paint4_linear)"/>
<path d="M143.15 86.588L143.322 88.2715C143.322 88.2715 143.946 88.6817 144.496 88.3653L144.771 86.5332L143.15 86.588Z" fill="white"/>
<path d="M134.536 40.447C133.915 41.6998 133.294 42.9526 132.672 44.206C132.172 51.3563 131.924 59.1317 132.084 67.4467C132.202 73.6329 132.535 79.4936 133.012 84.9944C133.854 84.956 134.697 84.9175 135.539 84.8791C136.757 82.4746 138.195 78.8307 138.327 74.3336C138.465 69.6427 137.035 69.0193 137.126 64.5279C137.244 58.7061 139.698 57.1527 141.005 50.1504C141.505 47.4724 141.842 43.9743 141.441 39.731C139.14 39.9694 136.839 40.2085 134.536 40.447Z" fill="#1E2538"/>
<path opacity="0.3" d="M141.442 39.7305C140.199 39.8593 138.955 39.9882 137.712 40.1176C135.475 43.9914 134.85 48.0241 135.243 49.8076C135.798 52.3313 137.268 53.1395 137.187 55.6729C137.107 58.1797 135.623 58.8301 134.681 61.7845C134.029 63.8303 134.201 65.7115 134.572 69.3898C135.319 76.7996 137.117 79.0657 135.611 81.4945C135.182 82.1846 134.412 83.0068 132.9 83.6346C132.937 84.089 132.973 84.545 133.012 84.9943C133.855 84.9559 134.697 84.9174 135.539 84.879C136.757 82.4739 138.195 78.8306 138.327 74.3334C138.465 69.6419 137.035 69.0191 137.126 64.5276C137.244 58.7058 139.698 57.1529 141.005 50.15C141.505 47.4719 141.842 43.9745 141.442 39.7305Z" fill="#5D6372"/>
<path d="M137.879 42.7032C139.045 49.0295 140.075 55.8001 140.879 62.9803C141.849 71.6502 142.367 79.8233 142.571 87.4121C143.495 87.4381 144.42 87.4641 145.344 87.4901C148.988 80.3206 149.21 75.4596 148.685 72.295C148.482 71.0755 147.933 68.6839 147.807 65.1102C147.72 62.6192 147.879 60.7233 148.079 58.4442C148.517 53.447 149.048 52.3563 149.124 48.5339C149.195 44.9466 149.21 43.1321 148.181 42.0725C145.469 39.2814 138.414 42.4562 137.879 42.7032Z" fill="#1E2538"/>
<path d="M117.882 17.9345C117.268 17.8916 116.653 17.8492 116.038 17.8062C114.588 23.637 115.628 29.2932 118.902 31.3734C124.016 34.6233 133.522 28.5004 135.582 21.8332C136.487 18.9071 136.281 14.6834 134.474 13.8629C133.972 13.6351 133.194 13.5995 131.507 14.5416C126.471 17.3541 126.339 22.6707 123.778 23.1205C122.64 23.3211 120.802 22.5995 117.882 17.9345Z" fill="url(#paint5_linear)"/>
<path d="M131.965 45.4888C131.079 44.0269 132.192 42.6164 132.445 39.8462C132.732 36.7065 131.516 36.1837 130.314 30.9808C129.514 27.5201 128.746 24.1984 129.663 20.3093C130.102 18.4456 130.846 15.2843 133.476 13.758C134.833 12.9702 136.686 13.0488 140.337 13.2386C144.851 13.4737 147.108 13.5907 148.791 14.4728C149.038 14.6017 154.158 17.373 154.511 21.8899C154.87 26.487 149.837 27.1047 149.166 33.235C148.865 35.9871 149.402 40.2197 149.75 42.965C150.085 45.6013 150.315 46.276 149.792 47.0739C148.531 48.9976 144.673 48.4494 136.955 47.3531C133.929 46.9225 132.626 46.58 131.965 45.4888Z" fill="url(#paint6_linear)"/>
<path opacity="0.3" d="M143.706 32.2484C144.032 33.4431 145.206 34.3359 146.023 37.2417C146.199 37.869 147.456 42.3379 145.826 43.4376C144.885 44.0728 144.04 42.8691 141.755 42.712C137.797 42.4396 135.911 45.7489 133.325 44.8453C132.876 44.6882 132.284 44.3542 131.693 43.5857C131.575 44.2779 131.595 44.8792 131.964 45.4878C132.625 46.5791 133.928 46.9215 136.955 47.3516C144.672 48.4479 148.53 48.996 149.791 47.0724C150.314 46.2745 150.084 45.5992 149.75 42.9635C149.401 40.2182 148.864 35.9855 149.166 33.2334C149.837 27.1031 154.87 26.4849 154.511 21.8882C154.415 20.6591 153.96 19.5651 153.352 18.6123C146.969 21.1836 142.681 28.4938 143.706 32.2484Z" fill="#FFA700"/>
<path d="M151.77 41.291L150.492 42.1025C150.263 41.8392 149.732 41.3074 148.903 41.126C147.969 40.922 146.897 41.2148 146.872 41.5114C146.852 41.7488 147.504 41.9884 147.605 42.0257C148.421 42.3246 149.025 42.0765 149.355 42.402C149.471 42.5173 149.616 42.7315 149.95 42.9304C150.038 42.9824 150.13 43.0287 150.178 43.0473C150.722 43.2576 151.655 42.3156 151.735 42.2336L151.77 41.291Z" fill="white"/>
<path d="M147.996 24.6256C147.072 22.4239 146.433 19.0536 147.892 14.0479C157.508 17.8171 162.413 26.7532 160.498 33.8374C158.919 39.6772 153.176 42.5214 151.895 43.1199C151.597 42.4446 151.299 41.7699 151.001 41.0951C152.486 39.4506 154.159 37.0184 153.922 34.2432C153.593 30.3959 149.867 29.0831 147.996 24.6256Z" fill="url(#paint7_linear)"/>
<path d="M140.573 8.70996C140.573 8.70996 140.649 10.3833 141.171 11.6367C141.643 12.7692 144.125 13.4812 144.628 13.7344C145.131 13.987 143.686 14.7261 142.234 14.8714C140.782 15.0166 136.636 14.6888 135.888 14.1412C135.141 13.5937 136.489 13.6349 137.525 13.2563C138.562 12.8777 139.161 10.8619 138.978 9.94642C138.794 9.03094 140.573 8.70996 140.573 8.70996Z" fill="white"/>
<path d="M139.277 7.6263C137.837 6.21823 137.636 6.05398 137.479 5.56662C136.848 3.61284 138.371 0.938274 140.369 0.27909C140.473 0.244509 141.813 -0.18125 142.324 0.396888C142.759 0.887494 142.12 1.56613 142.423 2.51276C142.708 3.39887 143.48 3.46479 144.911 4.62646C146.089 5.58282 146.822 6.17826 146.991 7.01467C147.34 8.73935 145.24 11.2399 143.382 11.1719C142.714 11.1481 142.532 10.8077 139.277 7.6263Z" fill="url(#paint8_linear)"/>
<path d="M143.201 11.4389C143.201 11.4389 141.669 13.1635 139.337 12.5929C137.248 12.0829 137.781 7.31424 139.309 6.55242C139.819 6.29848 140.746 6.31901 141.443 6.65291C141.855 6.85066 141.969 7.0549 142.648 7.36503C143.273 7.65031 143.472 7.61032 143.641 7.81131C143.851 8.06201 143.941 8.60339 143.282 9.90767C143.758 9.57268 144.269 9.50244 144.583 9.72396C144.633 9.75962 144.762 9.8828 144.816 10.046C145.015 10.6381 144.398 11.239 143.201 11.4389Z" fill="#E4CCCC"/>
<defs>
<linearGradient id="paint0_linear" x1="18.404" y1="88.7757" x2="137.088" y2="88.7757" gradientUnits="userSpaceOnUse">
<stop stop-color="#40447E"/>
<stop offset="0.9964" stop-color="#3C3B6B"/>
</linearGradient>
<linearGradient id="paint1_linear" x1="44.8221" y1="79.2423" x2="4.04474" y2="194.928" gradientUnits="userSpaceOnUse">
<stop stop-color="#444B8C"/>
<stop offset="0.9964" stop-color="#3E4177"/>
</linearGradient>
<linearGradient id="paint2_linear" x1="56.0124" y1="38.4228" x2="68.0365" y2="38.4228" gradientUnits="userSpaceOnUse">
<stop stop-color="#444B8C"/>
<stop offset="0.9964" stop-color="#3E4177"/>
</linearGradient>
<linearGradient id="paint3_linear" x1="132.317" y1="83.9695" x2="132.257" y2="67.8029" gradientUnits="userSpaceOnUse">
<stop stop-color="#AA80F9"/>
<stop offset="0.9964" stop-color="#6165D7"/>
</linearGradient>
<linearGradient id="paint4_linear" x1="141.898" y1="83.9339" x2="141.838" y2="67.7676" gradientUnits="userSpaceOnUse">
<stop stop-color="#AA80F9"/>
<stop offset="0.9964" stop-color="#6165D7"/>
</linearGradient>
<linearGradient id="paint5_linear" x1="125.467" y1="18.9528" x2="135.416" y2="83.185" gradientUnits="userSpaceOnUse">
<stop stop-color="#FFC444"/>
<stop offset="0.9964" stop-color="#F36F56"/>
</linearGradient>
<linearGradient id="paint6_linear" x1="146.845" y1="89.4392" x2="151.656" y2="154.252" gradientUnits="userSpaceOnUse">
<stop stop-color="#FFC444"/>
<stop offset="0.9964" stop-color="#F36F56"/>
</linearGradient>
<linearGradient id="paint7_linear" x1="158.722" y1="88.5576" x2="163.533" y2="153.371" gradientUnits="userSpaceOnUse">
<stop stop-color="#FFC444"/>
<stop offset="0.9964" stop-color="#F36F56"/>
</linearGradient>
<linearGradient id="paint8_linear" x1="146.27" y1="19.4824" x2="140.801" y2="1.39722" gradientUnits="userSpaceOnUse">
<stop stop-color="#444B8C"/>
<stop offset="0.9964" stop-color="#3E4177"/>
</linearGradient>
</defs>
</svg>
