<svg width="124" height="111" viewBox="0 0 124 111" fill="none" xmlns="http://www.w3.org/2000/svg">
    <path opacity="0.2" d="M89.3693 65.2116C89.3693 65.2116 89.0298 51.0844 95.6072 47.3033C102.185 43.5222 114.69 41.1584 115.159 20.8729C115.434 8.99705 115.731 3.80465 115.93 1.54024C116.007 0.657047 115.214 -0.0557825 114.334 0.108046C108.104 1.26879 87.8684 6.04727 83.6257 19.7117C78.5951 35.9111 89.3693 65.2116 89.3693 65.2116Z" fill="#60B158"/>
    <path opacity="0.5" d="M109.515 5.75256C102.678 11.7855 94.7707 22.4631 90.5567 33.1402C90.0158 34.9001 88.4333 38.642 87.7463 45.291C87.1323 50.8363 87.4375 56.6958 88.1819 60.575C88.229 60.8203 88.4681 60.9811 88.7157 60.9349C89.142 60.8547 89.0852 60.4016 89.0812 60.4155C88.2312 53.7883 88.584 45.5398 90.5316 38.0974C93.0196 28.9587 98.569 20.0984 104.309 12.5841L104.9 11.8443C109.347 6.19437 110.283 6.15254 109.867 5.75909C109.769 5.66585 109.615 5.66498 109.515 5.75256Z" fill="white"/>
    <path opacity="0.2" d="M78.4456 95.1261C77.4656 95.6014 87.7237 82.8398 90.9375 62.7961C92.4517 53.3511 92.4715 41.5175 97.91 36.9569C102.436 33.1614 117.839 35.5578 122.878 36.4685C123.508 36.5822 123.72 37.3691 123.23 37.7765C120.813 39.7842 115.643 44.5209 114.296 49.2941C112.521 55.5859 106.475 59.5875 101.061 60.6706C95.6484 61.7538 92.6371 62.8048 90.0003 71.3683C87.363 79.9318 81.2304 93.7753 78.4456 95.1261Z" fill="#60B158"/>
    <path opacity="0.5" d="M115.79 39.127C109.36 39.3933 102.458 42.2951 98.956 47.7381L98.6253 48.2574C97.8616 49.4753 93.5343 58.1329 91.1314 65.3091C91.1014 65.3984 91.1503 65.4952 91.241 65.5248C91.3947 65.5749 91.4714 65.408 91.4568 65.4228C93.1314 61.3685 95.5361 56.2284 97.4515 52.3845C99.5057 48.1903 100.943 45.3495 105.628 42.6289C110.843 39.6987 115.825 39.3972 115.81 39.4002C115.886 39.3924 115.941 39.3253 115.934 39.2499C115.926 39.1776 115.863 39.1244 115.79 39.127Z" fill="white"/>
    <path opacity="0.2" d="M82.8434 96.8048C82.2615 97.1081 86.1193 90.5397 86.4152 84.7525C86.7112 78.9654 88.0307 69.0882 93.0754 63.1795C98.1201 57.2708 103.644 56.7318 110.605 62.1033C116.406 66.5794 120.024 68.8385 122.146 69.2581C122.672 69.3623 122.94 69.9487 122.684 70.4149C121.323 72.8946 117.475 78.5902 111.014 78.1889C102.772 77.6774 92.7848 72.3774 89.7405 76.7986C86.6962 81.2198 87.0873 83.6938 86.9935 85.7891C86.9006 87.8849 86.6918 94.7975 82.8434 96.8048Z" fill="#60B158"/>
    <path opacity="0.5" d="M108.267 69.1979C105.742 66.8032 101.63 64.4503 98.0364 64.8891C93.3608 65.6342 90.2461 68.7229 88.5473 73.321C87.8832 75.2735 87.6101 76.3157 87.2172 78.7087C87.186 78.9 87.4709 78.957 87.518 78.7701C87.8039 77.646 88.0866 76.4691 88.5103 75.2517C90.9746 67.3979 96.2355 66.34 96.4403 66.1792C96.838 66.218 99.2489 64.4324 104.97 67.4781C106.039 68.0532 107.078 68.7099 108.054 69.4345L108.06 69.4384C108.13 69.4907 108.231 69.4767 108.284 69.4066C108.333 69.3421 108.324 69.2523 108.267 69.1979Z" fill="white"/>
    <path d="M35.8952 93.1799L37.8969 96.4701C38.5675 97.5721 39.8708 98.132 41.1426 97.8642L44.1569 97.2294C44.9721 97.0577 45.8153 97.2995 46.4249 97.8616C47.9587 99.2763 49.6365 100.495 51.4184 101.509C52.1419 101.92 52.6245 102.647 52.6983 103.469L52.9707 106.509C53.0855 107.791 54.0094 108.859 55.2714 109.169L59.0384 110.095C60.3004 110.406 61.6222 109.889 62.3301 108.81L64.0096 106.25C64.4639 105.558 65.2343 105.139 66.0686 105.11C68.1229 105.04 70.1821 104.74 72.2069 104.201C73.0117 103.986 73.8708 104.163 74.5102 104.692L76.8733 106.649C77.8704 107.475 79.287 107.584 80.4012 106.921L83.727 104.94C84.8409 104.277 85.4069 102.988 85.1362 101.729L84.4945 98.7473C84.321 97.9408 84.5654 97.1066 85.1336 96.5036C86.5636 94.9862 87.7954 93.3264 88.82 91.5636C89.2361 90.8475 89.9706 90.3704 90.8023 90.2974L93.8751 90.0279C95.1703 89.9144 96.2501 89.0003 96.5635 87.7519L97.4999 84.0252C97.8136 82.7767 97.2919 81.469 96.2015 80.7687L93.6136 79.1072C92.9136 78.6578 92.4902 77.8956 92.4616 77.0703C92.3904 75.038 92.0874 73.0008 91.542 70.9977C91.3251 70.2016 91.5041 69.3513 92.0391 68.7194L94.0173 66.3816C94.8519 65.3952 94.9621 63.9937 94.2915 62.8917L92.2889 59.6015C91.6183 58.4995 90.315 57.9397 89.0435 58.2075L86.0292 58.8423C85.214 59.0139 84.3707 58.7722 83.7612 58.21C82.2274 56.7954 80.5496 55.5767 78.7677 54.5631C78.0442 54.1514 77.5615 53.4248 77.4878 52.6023L77.2154 49.5625C77.1006 48.2811 76.1767 47.2132 74.9147 46.9028L71.1476 45.9765C69.8857 45.6661 68.5639 46.1822 67.856 47.2612L66.1764 49.8211C65.7221 50.5137 64.9518 50.9325 64.1175 50.9608C62.0632 51.0312 60.004 51.331 57.9792 51.8705C57.1744 52.0851 56.315 51.908 55.6759 51.3788L53.3128 49.4217C52.3157 48.5961 50.899 48.4871 49.7848 49.1505L46.4588 51.1307C45.3448 51.7942 44.7786 53.0835 45.0496 54.3417L45.6913 57.3238C45.8648 58.1302 45.6204 58.9644 45.0522 59.5675C43.6222 61.0848 42.3903 62.7446 41.3658 64.5075C40.9497 65.2232 40.2152 65.7007 39.3838 65.7736L36.311 66.0431C35.0158 66.1567 33.936 67.0707 33.6223 68.3192L32.6859 72.0459C32.3722 73.2941 32.8938 74.6017 33.9846 75.3021L36.5724 76.9636C37.2728 77.413 37.6959 78.1751 37.7248 79.0005C37.7959 81.0328 38.099 83.0699 38.6444 85.0731C38.8613 85.8692 38.6823 86.7194 38.1473 87.3517L36.169 89.6895C35.3351 90.6762 35.2249 92.078 35.8952 93.1799ZM44.6636 87.5717C39.3401 76.4095 44.1714 63.0917 55.4544 57.825C66.7374 52.5586 80.1997 57.3381 85.5231 68.5003C90.8465 79.6625 86.0153 92.9805 74.7323 98.247C63.4489 103.513 49.9867 98.7339 44.6636 87.5717Z" fill="#60B158"/>
    <path d="M74.5233 58.1145C70.8549 57.335 58.3432 55.047 45.2421 56.9028C40.8541 57.5241 36.9699 60.046 34.6017 63.7531C30.3348 70.4321 24.2992 82.3385 25.5755 94.7563L32.2727 96.3946C32.2727 96.3946 36.9012 81.6618 42.1102 75.6655C42.1102 75.6655 48.2793 89.577 47.9675 97.2164C47.9587 97.4325 47.9446 97.6434 47.9252 97.8486C47.2174 105.323 77.5398 99.2433 77.5398 99.2433L75.6508 59.4321C75.6204 58.7898 75.1584 58.2491 74.5233 58.1145Z" fill="#FF6961"/>
    <path d="M64.0909 44.1341L64.9726 54.4771C65.0546 55.4391 64.5533 56.3393 63.7178 56.7245C61.7936 57.6121 58.0988 58.8852 54.1473 57.9506C53.4241 57.7798 52.9528 57.0321 53.0722 56.2692L55.635 39.875L64.0909 44.1341Z" fill="url(#paint0_linear)"/>
    <path d="M52.3252 31.5986C52.3252 31.5986 50.3349 39.2411 50.7295 43.0248C51.1241 46.8085 50.7 49.3714 55.2056 49.4337C59.7112 49.496 63.055 46.7523 64.452 42.7002C64.452 42.7002 66.6568 36.4481 65.5729 34.202C64.4886 31.9559 52.3252 31.5986 52.3252 31.5986Z" fill="url(#paint1_linear)"/>
    <path d="M62.5202 40.251L61.9661 40.3385C61.9661 40.3385 63.501 35.3444 61.3636 34.8477C59.2262 34.3509 51.0205 34.0037 48.8553 31.4848C46.7681 29.057 47.6812 25.35 49.7296 24.0293C49.8591 23.9457 50.0344 23.9849 50.1273 24.1069L50.3651 24.4201C50.5281 24.6345 50.8721 24.5439 50.9055 24.2777C50.9373 24.025 51.2575 23.9204 51.4261 24.1125C52.0859 24.8637 53.7261 25.9957 57.6499 26.0894C63.2178 26.2218 67.1434 27.8222 67.8282 31.5062C67.8718 31.7397 68.1458 31.8286 68.3281 31.6748C68.6884 31.3711 69.3094 31.1572 70.2779 31.7323C71.9626 32.7331 71.8723 36.0337 69.0425 39.1843C68.9082 39.3342 68.9478 39.573 69.1328 39.654C69.7842 39.9407 70.81 40.7063 68.725 42.2722C66.5919 43.8739 65.1905 43.9576 64.6483 43.9083C64.5025 43.8948 64.388 43.7837 64.3735 43.6395L64.0489 40.3303C64.0322 40.159 63.8727 40.0375 63.7014 40.0645L62.5202 40.251Z" fill="url(#paint2_linear)"/>
    <path d="M62.4946 40.9582C62.4946 40.9582 62.9571 36.2041 65.2323 37.157C67.5076 38.1099 64.9848 42.4409 63.3495 42.8745L62.4946 40.9582Z" fill="url(#paint3_linear)"/>
    <path d="M75.5086 87.3646C76.1627 82.7966 71.3809 76.0822 69.4029 73.5342C68.837 72.8052 68.5207 71.9142 68.5128 70.9952C68.4551 64.5262 70.6687 61.1468 75.0682 58.3569C75.0682 58.3569 91.5672 75.9846 87.5016 90.1396C87.0629 91.6673 86.3829 92.9796 85.521 94.1073C84.8801 88.7741 78.6489 87.6108 75.5086 87.3646Z" fill="url(#paint4_linear)"/>
    <path d="M75.2108 85.5976L75.819 85.5287C75.3033 81.0491 71.3302 75.519 69.6459 73.3496L69.1602 73.7187C70.8131 75.8484 74.7118 81.2687 75.2108 85.5976Z" fill="url(#paint5_linear)"/>
    <path d="M75.3829 87.9974C75.4389 87.7922 75.4776 87.58 75.5084 87.3647C78.6487 87.6109 84.8804 88.7743 85.5208 94.1078C78.3955 103.431 58.7549 100.067 58.7549 100.067V96.4394C58.7549 96.4398 73.8388 93.6673 75.3829 87.9974Z" fill="url(#paint6_linear)"/>
    <path d="M60.6433 99.0654C60.6433 99.0654 57.7435 92.2957 52.6336 94.697C47.5237 97.0982 47.9254 98.6693 47.9254 98.6693L60.6433 99.0654Z" fill="url(#paint7_linear)"/>
    <path d="M61.2944 100.47C61.2539 100.982 60.8126 101.372 60.2938 101.354L33.8151 100.44C33.4037 100.426 33.0461 100.156 32.9232 99.7675L32.1547 97.3345C31.9657 96.7367 32.3969 96.1232 33.0289 96.0901L42.6849 95.5825C42.7726 95.5777 42.8606 95.5851 42.9461 95.6038L60.5373 99.4582C61.0095 99.5614 61.3323 99.9928 61.2944 100.47Z" fill="#5D6372"/>
    <path d="M43.5454 99.5142L42.817 96.1553L32.8984 96.6237L33.5512 99.4105L43.5454 99.5142Z" fill="#1E2538"/>
    <path d="M48.6305 63.2817C49.192 67.8192 51.717 86.2555 52.4397 91.5229C52.5415 92.2636 51.9465 92.9154 51.1911 92.8941L8.3535 91.6815C7.79283 91.6658 7.31497 91.275 7.19341 90.7334L0.529689 61.0443C0.353517 60.2595 0.985094 59.5258 1.79637 59.5724L47.4867 62.2198C48.0777 62.2542 48.5587 62.7004 48.6305 63.2817Z" fill="#1E2538"/>
    <path d="M31.4112 81.9815L37.7424 99.7586L23.021 100.067L21.7953 82.0878C21.7376 81.2443 22.4449 80.5436 23.298 80.5998L30.1732 81.0512C30.7365 81.0887 31.2236 81.4543 31.4112 81.9815Z" fill="#5D6372"/>
    <path d="M43.7107 100.011C43.8728 100.501 43.5046 101.004 42.984 101.004H19.9296C19.5073 101.004 19.165 100.665 19.165 100.247V99.269C19.165 98.8385 19.5275 98.4947 19.9622 98.5134L43.017 99.4916C43.335 99.5051 43.6111 99.7125 43.7107 100.011Z" fill="#5D6372"/>
    <path d="M65.249 36.2294C65.249 36.2294 64.8874 27.6158 59.8335 25.8228C59.8335 25.8228 61.4168 25.4324 62.8236 26.4659C64.2303 27.4994 67.4195 32.2805 66.5113 36.6864C65.3997 36.8281 65.249 36.2294 65.249 36.2294Z" fill="#1E2538"/>
    <path d="M66.2279 35.8899C68.9987 36.9883 67.9791 40.5242 67.9791 40.5242C67.7034 43.1742 66.693 44.3297 65.5915 44.768C64.8388 45.0673 63.9822 44.9528 63.3356 44.4682C62.6891 43.9837 62.3464 43.199 62.4332 42.4012C62.5116 41.6805 62.5759 40.9939 62.5667 40.7442C62.5451 40.139 63.4576 34.7915 66.2279 35.8899Z" fill="#1E2538"/>
    <path d="M65.7955 36.752C66.4117 36.7572 66.9428 37.1781 67.0811 37.772C68.0721 42.0246 65.4863 44.2058 64.4399 44.072C63.3371 43.9308 64.3205 38.7349 64.7993 37.4439C65.0001 36.9028 65.3991 36.7485 65.7955 36.752Z" fill="#5D6372"/>
    <path d="M49.2588 82.1209L49.5997 82.0782L47.4953 65.6575C47.3636 64.6296 46.5096 63.8392 45.4649 63.7769L5.98115 61.418L5.96045 61.7574L45.4442 64.1163C46.3242 64.1686 47.043 64.8348 47.1544 65.7002L49.2588 82.1209Z" fill="#91B3FA"/>
    <path d="M50.2037 86.7588L49.8628 86.8013L50.3157 90.3566L50.6565 90.3142L50.2037 86.7588Z" fill="#91B3FA"/>
     
    <defs>
        <linearGradient id="paint0_linear" x1="63.5692" y1="71.3736" x2="57.5103" y2="45.4024" gradientUnits="userSpaceOnUse">
            <stop stop-color="#FEBBBA"/>
            <stop offset="1" stop-color="#FF928E"/>
        </linearGradient>
        <linearGradient id="paint1_linear" x1="62.6439" y1="42.1774" x2="51.4191" y2="39.2069" gradientUnits="userSpaceOnUse">
            <stop stop-color="#FEBBBA"/>
            <stop offset="1" stop-color="#FF928E"/>
        </linearGradient>
        <linearGradient id="paint2_linear" x1="73.2115" y1="47.4353" x2="52.2973" y2="22.5232" gradientUnits="userSpaceOnUse">
            <stop stop-color="#E1473D"/>
            <stop offset="1" stop-color="#E9605A"/>
        </linearGradient>
        <linearGradient id="paint3_linear" x1="63.2876" y1="39.7462" x2="52.0625" y2="36.7757" gradientUnits="userSpaceOnUse">
            <stop stop-color="#FEBBBA"/>
            <stop offset="1" stop-color="#FF928E"/>
        </linearGradient>
        <linearGradient id="paint4_linear" x1="-713.494" y1="886.292" x2="-678.207" y2="849.482" gradientUnits="userSpaceOnUse">
            <stop stop-color="#FF928E"/>
            <stop offset="1" stop-color="#FE7062"/>
        </linearGradient>
        <linearGradient id="paint5_linear" x1="127.754" y1="22.965" x2="22.1554" y2="133.583" gradientUnits="userSpaceOnUse">
            <stop stop-color="#E1473D"/>
            <stop offset="1" stop-color="#E9605A"/>
        </linearGradient>
        <linearGradient id="paint6_linear" x1="77.1873" y1="82.1282" x2="65.7657" y2="112.511" gradientUnits="userSpaceOnUse">
            <stop stop-color="#FEBBBA"/>
            <stop offset="1" stop-color="#FF928E"/>
        </linearGradient>
        <linearGradient id="paint7_linear" x1="62.7468" y1="76.6991" x2="51.3252" y2="107.081" gradientUnits="userSpaceOnUse">
            <stop stop-color="#FEBBBA"/>
            <stop offset="1" stop-color="#FF928E"/>
        </linearGradient>
    </defs>
</svg>
